<svg id="Слой_1" data-name="Слой 1" xmlns="http://www.w3.org/2000/svg" xmlns:xlink="http://www.w3.org/1999/xlink" viewBox="0 0 499.98 455.57"><defs><style>.cls-1{fill:#b5dfea;}.cls-2{fill:#90cedd;}.cls-18,.cls-2{opacity:0.55;}.cls-14,.cls-18,.cls-2{isolation:isolate;}.cls-3{fill:#79c9e8;}.cls-4{fill:#d7f0f9;}.cls-5{fill:#0582c1;}.cls-6{fill:#fff;}.cls-7{fill:#ffbf4d;}.cls-8{fill:#00668e;}.cls-9{fill:#05556d;}.cls-10{fill:#f98d3d;}.cls-11{fill:#ed701b;}.cls-12{fill:none;}.cls-13{fill:#efaa3a;}.cls-14{fill:#f98d2b;opacity:0.29;}.cls-15{fill:#49b4d6;}.cls-16{fill:#ff9f50;}.cls-17{fill:#f77e2d;}.cls-18{fill:url(#Безымянный_градиент_3);}</style><linearGradient id="Безымянный_градиент_3" x1="274.8" y1="83.4" x2="274.8" y2="111.25" gradientTransform="matrix(1, 0, 0, -1, -0.02, 501.69)" gradientUnits="userSpaceOnUse"><stop offset="0" stop-color="#fff"/><stop offset="1" stop-color="#fff" stop-opacity="0"/></linearGradient></defs><title>404</title><g id="OBJECTS"><path class="cls-1" d="M485.07,455.89a14.74,14.74,0,0,0,14.74-14.5c.61-40.1,3.84-99.26-71.68-115.62C367,312.53,403.24,203.92,238.64,210.93,120.48,216,151.87,315.56,60,323.86-1.13,329.38-1.66,406.69.69,442.12A14.74,14.74,0,0,0,15.4,455.89Z" transform="translate(-0.02 -0.31)"/><path class="cls-2" d="M428.13,325.77C367,312.53,403.24,203.92,238.64,210.93c-28.1,1.2-47.73,7.76-62.59,17.15,5-.65,10.32-1.12,16-1.36,164.6-7,128.36,101.6,189.48,114.84,74.72,16.19,72.36,74.26,71.7,114.33h31.86a14.74,14.74,0,0,0,14.74-14.5C500.42,401.29,503.65,342.13,428.13,325.77Z" transform="translate(-0.02 -0.31)"/><rect class="cls-3" x="166.38" width="2.6" height="189.61"/><rect class="cls-3" x="352.72" width="2.6" height="218.74"/><path class="cls-4" d="M355.09,206.3,161.83,183.75A15,15,0,0,0,145.14,197L130.71,320.53a15.06,15.06,0,0,0,13.21,16.7l193.26,22.56a15.06,15.06,0,0,0,16.7-13.21L368.3,223A15.06,15.06,0,0,0,355.09,206.3Z" transform="translate(-0.02 -0.31)"/><path class="cls-5" d="M366.87,235.23,368.3,223a15.06,15.06,0,0,0-13.21-16.7L161.83,183.75A15,15,0,0,0,145.14,197l-1.43,12.23Z" transform="translate(-0.02 -0.31)"/><path class="cls-3" d="M175,284l24.5-43.16a7.92,7.92,0,0,1,7.8-3.95h0a7.91,7.91,0,0,1,6.94,8.78l-5.09,43.66.22,0a5.49,5.49,0,0,1,4.81,6.08h0a5.48,5.48,0,0,1-6.09,4.81l-.21,0-.93,7.95a5.93,5.93,0,0,1-6.57,5.2h0a5.92,5.92,0,0,1-5.19-6.57l.92-7.95-17.63-2.06a5.49,5.49,0,0,1-4.82-6.09l.47-4A7.27,7.27,0,0,1,175,284Zm22.47,3.23,3.16-27.07a.17.17,0,0,0-.32-.11L185.8,285.6a.73.73,0,0,0,.55,1.08l10.28,1.2A.73.73,0,0,0,197.44,287.24Z" transform="translate(-0.02 -0.31)"/><path class="cls-3" d="M283.09,296.63l24.49-43.16a7.92,7.92,0,0,1,7.8-3.95h0a7.91,7.91,0,0,1,6.95,8.78L317.23,302l.22,0a5.48,5.48,0,0,1,4.81,6.08h0a5.48,5.48,0,0,1-6.08,4.81l-.22,0L315,320.8a5.92,5.92,0,0,1-6.57,5.19h0a5.91,5.91,0,0,1-5.19-6.56l.93-7.95-17.64-2.06a5.5,5.5,0,0,1-4.82-6.1l.47-4A7.11,7.11,0,0,1,283.09,296.63Zm22.46,3.23,3.16-27.07a.17.17,0,0,0-.32-.11l-14.47,25.54a.72.72,0,0,0,.54,1.08l10.29,1.2A.72.72,0,0,0,305.55,299.86Z" transform="translate(-0.02 -0.31)"/><path class="cls-3" d="M234.49,258.62c1.42-12.2,8.66-18.42,20.42-17s17.38,9.09,16,21.29l-4.63,39.65c-1.43,12.2-8.67,18.42-20.43,17.05s-17.38-9.1-15.95-21.3Zm7.26,41.81c-.63,5.45,1.52,7.8,5.33,8.24s6.45-1.34,7.09-6.79l4.8-41.17c.64-5.45-1.52-7.8-5.33-8.24s-6.45,1.34-7.08,6.79Z" transform="translate(-0.02 -0.31)"/><path class="cls-6" d="M166.49,200.82a4,4,0,1,1-3.55-4.48A4,4,0,0,1,166.49,200.82Z" transform="translate(-0.02 -0.31)"/><path class="cls-3" d="M185.87,203.09a4,4,0,1,1-3.55-4.49A4.05,4.05,0,0,1,185.87,203.09Z" transform="translate(-0.02 -0.31)"/><path class="cls-7" d="M206,205.43a4,4,0,1,1-3.55-4.49A4,4,0,0,1,206,205.43Z" transform="translate(-0.02 -0.31)"/><path class="cls-8" d="M128.23,346.19a103.59,103.59,0,0,0-2.18,23.41c.39,10.59-.87,80.23-.87,80.23h8.51s12.1-54.54,12.56-58.85,6.54-47.38,6.54-47.38Z" transform="translate(-0.02 -0.31)"/><path class="cls-5" d="M133.88,343s2,14.88,5.29,25.45,19.68,81.36,19.68,81.36h8.51s-1.57-54.54-2.15-58.85-4.9-47.38-4.9-47.38Z" transform="translate(-0.02 -0.31)"/><path class="cls-5" d="M159.55,449.82v5.93h16.19a.93.93,0,0,0,.52-1.7c-2.37-1.58-6.17-3.75-9.69-4.23Z" transform="translate(-0.02 -0.31)"/><path class="cls-5" d="M125.61,449.82v5.93h16.2a.93.93,0,0,0,.51-1.7c-2.37-1.58-6.16-3.75-9.69-4.23Z" transform="translate(-0.02 -0.31)"/><path class="cls-8" d="M154.83,273.8s5.57-8.46-.83-9.28c-4.91-.63-6.93.83-6.93.83s-5.65-.63-8.74,2.06c-2.12,1.83-9.9,16.08,2.68,21.24s9.9-8,9.9-8Z" transform="translate(-0.02 -0.31)"/><path class="cls-9" d="M154,264.52c-4.91-.63-6.93.83-6.93.83s-5.65-.63-8.74,2.06c-2.12,1.83-9.9,16.08,2.68,21.24,5.91,2.42,8.45.79,9.49-1.62-11.94,3.36-13.24-11-11.27-15.12s6.8-2.24,6.8-2.24c1.88-4.73,8-4.22,10.52-3.85A3.49,3.49,0,0,0,154,264.52Z" transform="translate(-0.02 -0.31)"/><path class="cls-10" d="M147,277.92s-1.65-1.64-2.89,0-.41,5.37,1.65,5.57c0,0-.62,5.37-4.74,5.16V293h9.69v-3.3s6-2.47,5.78-7.42a27.53,27.53,0,0,0-1.65-8.46S151.53,277.51,147,277.92Z" transform="translate(-0.02 -0.31)"/><path class="cls-11" d="M148.47,291.07c1,.4.8,1,.84,1.91h1.39v-3.3s-2.35.75-5.79-1.21A15.44,15.44,0,0,0,148.47,291.07Z" transform="translate(-0.02 -0.31)"/><path class="cls-10" d="M150.46,270s-5-2-5.61-.5c-.39,1,.59,1.83,1.93,2.69l-1.18.19a.31.31,0,0,0-.15.55c.33.26,1.24.44,3.14.51Z" transform="translate(-0.02 -0.31)"/><polygon class="cls-12" points="120.55 324.21 127.28 345.91 127.16 344.81 127.28 345.91 129.55 314.31 120.55 324.21"/><path class="cls-7" d="M186.34,282.62c-9.58-7.1-35.75-12.78-35.75-12.78l-2.16,3.93s23.76,9.21,22.19,10.58c-.92.81-12.53,6.13-16.46,7.92a6.22,6.22,0,0,1-2.7.55l-12-.07a19,19,0,0,0-15.51,6.81c-6.1,7-16.47,23.29-16.47,23.29l17.47,25.7,1.94,2.84,0,0,0,.23,1.72.17c5.62.52,23.62,1.95,33.15-.07l.26-.06-.45-42.16a163.69,163.69,0,0,0,25.08-24.27A1.76,1.76,0,0,0,186.34,282.62ZM127.7,340.11l-1.7-3.72-5.43-11.87,9-10.09L128,336.58Z" transform="translate(-0.02 -0.31)"/><polygon class="cls-13" points="125.97 336.07 127.68 339.8 126.85 351.04 126.83 351.07 124.9 348.24 125.97 336.07"/><path class="cls-14" d="M157.48,308c-1.62,1.18-1.21,11.61-1.61,18.12-.67,10.92-1.32,20.37-.84,26.46a48.52,48.52,0,0,0,6.7-.84l.26-.06-.45-42.16a163.69,163.69,0,0,0,25.08-24.27,1.76,1.76,0,0,0-.28-2.58A214.87,214.87,0,0,1,157.48,308Z" transform="translate(-0.02 -0.31)"/><path class="cls-8" d="M165.21,391c-.43-3.11-2.79-26.39-4.07-39.12l-6.11.67s8.92,73.31,9.5,97.3h2.83S165.79,395.29,165.21,391Z" transform="translate(-0.02 -0.31)"/><path class="cls-5" d="M126,279.13l-1.84-3.31a12.5,12.5,0,1,0-2.16,2.94Z" transform="translate(-0.02 -0.31)"/><path class="cls-6" d="M106.65,268.86h.49v1.74c0,.53.15.76.53.76s.5-.14.77-.48v-2h.48v2.85h-.4l0-.45h0a1.2,1.2,0,0,1-.94.52c-.6,0-.87-.39-.87-1.12v-1.8Z" transform="translate(-0.02 -0.31)"/><path class="cls-6" d="M110.94,272v1h-.48v-4.05h.4l0,.33h0a1.45,1.45,0,0,1,.91-.4c.73,0,1.12.57,1.12,1.45s-.58,1.54-1.23,1.54a1.35,1.35,0,0,1-.79-.33Zm.7-.58c.47,0,.81-.42.81-1.13s-.21-1-.75-1a1.19,1.19,0,0,0-.76.38v1.5A1.15,1.15,0,0,0,111.64,271.37Z" transform="translate(-0.02 -0.31)"/><path class="cls-6" d="M114.22,271.06a1.29,1.29,0,0,0,.84.34c.37,0,.56-.2.56-.44s-.34-.42-.65-.54-.85-.34-.85-.82.36-.81,1-.81a1.42,1.42,0,0,1,.88.32l-.23.31a1,1,0,0,0-.65-.25c-.35,0-.52.19-.52.41s.31.37.64.49.86.32.86.86-.37.85-1,.85a1.74,1.74,0,0,1-1.06-.39Z" transform="translate(-0.02 -0.31)"/><path class="cls-6" d="M117.59,271a.37.37,0,0,1,0,.74.36.36,0,0,1-.36-.37A.35.35,0,0,1,117.59,271Z" transform="translate(-0.02 -0.31)"/><path class="cls-6" d="M119.63,271a.37.37,0,0,1,0,.74.36.36,0,0,1-.35-.37A.35.35,0,0,1,119.63,271Z" transform="translate(-0.02 -0.31)"/><path class="cls-3" d="M78.16,429.19s-2.62-2.44-.86-11.73,6.22-18.21,4-28.29S62,353.69,61.91,352s-5.29,29.56,3.59,41.87,9.94,16.58,9.55,23.05.09,11.69,1.07,13.19Z" transform="translate(-0.02 -0.31)"/><path class="cls-15" d="M76.54,410.51c-1,4.15-1.66,14.54,0,17,.15.23.38.1.65-.33-.5-1.71-.83-4.72.12-9.74,1.76-9.29,6.22-18.21,4-28.29S62,353.69,61.91,352c0,0,2.59,21.17,11.31,35.74C79.45,398.17,77.57,406.37,76.54,410.51Z" transform="translate(-0.02 -0.31)"/><path class="cls-3" d="M81.29,428.55s-5-12.6,3.51-23.5S107,380.14,107.29,374.6c0,0,3.52,26.33-7.61,33.79s-18.93,8.64-17,20.11Z" transform="translate(-0.02 -0.31)"/><path class="cls-15" d="M93.3,403.09c-12.41,9-13.42,19.44-11.49,24.26a1.21,1.21,0,0,0,.8.73C81,417,88.69,415.75,99.68,408.39s7.61-33.79,7.61-33.79S105.71,394.06,93.3,403.09Z" transform="translate(-0.02 -0.31)"/><path class="cls-3" d="M73,428.83A43.85,43.85,0,0,0,73.75,415c-.86-7.2-8.38-11.25-15.41-18.85-3.61-3.91-4.68-24.6-2.44-26.53,0,0-12.41,15-10.49,26.05s22.15,18.16,24,23.48a29.34,29.34,0,0,1,1.72,9.78Z" transform="translate(-0.02 -0.31)"/><path class="cls-15" d="M51.71,375.5c-4.1,11.1.1,24.55,13.72,32.91,10,6.15,6.84,18.93,6.84,18.93l1.63-5a39,39,0,0,0-.15-7.34c-.86-7.2-8.38-11.25-15.41-18.85-3.48-3.78-4.6-23.15-2.67-26.25C55.11,370.58,53.5,372.66,51.71,375.5Z" transform="translate(-0.02 -0.31)"/><path class="cls-15" d="M55.68,369.86l.22-.28A1.3,1.3,0,0,0,55.68,369.86Z" transform="translate(-0.02 -0.31)"/><path class="cls-3" d="M83.89,428S86.8,417.21,94,415.76s15.45-12.08,15.9-14.17C109.89,401.59,108.67,421.64,83.89,428Z" transform="translate(-0.02 -0.31)"/><path class="cls-15" d="M93.58,419.32c-4.41,2.21-6.24,5.17-6.89,7.86,22.06-7.09,23.2-25.59,23.2-25.59a7.8,7.8,0,0,1-1.12,2.11C106.6,407.49,101.36,415.43,93.58,419.32Z" transform="translate(-0.02 -0.31)"/><path class="cls-7" d="M99.45,424H61.84l4.46,28.09a4.4,4.4,0,0,0,4.34,3.7h20a4.4,4.4,0,0,0,4.34-3.7Z" transform="translate(-0.02 -0.31)"/><polygon class="cls-16" points="98.69 428.36 99.43 423.71 61.81 423.71 62.55 428.36 98.69 428.36"/><path class="cls-16" d="M90.34,424l-4.47,28.09a4.38,4.38,0,0,1-4.33,3.7h9.11a4.4,4.4,0,0,0,4.34-3.7L99.45,424Z" transform="translate(-0.02 -0.31)"/><rect class="cls-7" x="188.87" y="373.61" width="170.01" height="34.57"/><rect class="cls-14" x="188.87" y="373.61" width="170.01" height="8.39"/><polygon class="cls-17" points="203.65 373.61 219.17 373.61 215.01 382 199.49 382 203.65 373.61"/><polygon class="cls-17" points="238.61 373.61 254.13 373.61 249.97 382 234.45 382 238.61 373.61"/><polygon class="cls-17" points="273.57 373.61 289.09 373.61 284.93 382 269.41 382 273.57 373.61"/><polygon class="cls-17" points="308.53 373.61 324.04 373.61 319.88 382 304.37 382 308.53 373.61"/><polygon class="cls-17" points="358.88 373.61 358.88 373.84 354.83 382 339.33 382 343.49 373.61 358.88 373.61"/><rect class="cls-3" x="210.03" y="408.18" width="11.98" height="47.26"/><rect class="cls-15" x="219.3" y="408.18" width="2.72" height="47.26"/><rect class="cls-3" x="326.66" y="408.18" width="11.98" height="47.26"/><rect class="cls-15" x="335.1" y="408.18" width="3.54" height="47.26"/><rect class="cls-15" x="210.03" y="408.14" width="11.98" height="5.95"/><rect class="cls-15" x="326.66" y="408.14" width="11.98" height="5.95"/><rect class="cls-3" x="210.03" y="368.21" width="11.98" height="5.37"/><rect class="cls-15" x="219.3" y="368.21" width="2.72" height="5.37"/><rect class="cls-3" x="326.66" y="368.21" width="11.98" height="5.37"/><rect class="cls-15" x="335.1" y="368.21" width="3.54" height="5.37"/><rect class="cls-15" x="210.03" y="372.9" width="11.98" height="0.68"/><rect class="cls-15" x="326.66" y="372.9" width="11.98" height="0.68"/><polygon class="cls-5" points="219.17 373.61 202.03 408.17 188.87 408.17 188.87 403.4 203.65 373.61 219.17 373.61"/><polygon class="cls-5" points="238.61 373.61 221.47 408.17 236.98 408.17 254.13 373.61 238.61 373.61"/><polygon class="cls-5" points="289.09 373.61 271.94 408.17 256.43 408.17 273.57 373.61 289.09 373.61"/><polygon class="cls-5" points="324.04 373.61 306.9 408.17 291.38 408.17 308.53 373.61 324.04 373.61"/><polygon class="cls-5" points="343.49 373.61 326.34 408.17 341.85 408.17 358.88 373.84 343.49 373.61"/><polygon class="cls-8" points="219.17 373.61 215.01 382 199.49 382 203.65 373.61 219.17 373.61"/><polygon class="cls-8" points="254.13 373.61 249.97 382 234.45 382 238.61 373.61 254.13 373.61"/><polygon class="cls-8" points="289.09 373.61 284.93 382 269.41 382 273.57 373.61 289.09 373.61"/><polygon class="cls-8" points="324.04 373.61 319.88 382 304.37 382 308.53 373.61 324.04 373.61"/><polygon class="cls-8" points="358.88 373.84 354.83 382 339.33 382 343.49 373.61 358.88 373.84"/><rect class="cls-18" x="193.61" y="388.56" width="162.34" height="17.29"/><circle class="cls-7" cx="215.72" cy="361.03" r="10.69" transform="translate(-55.2 39.02) rotate(-9.24)"/><path class="cls-5" d="M220.58,361a4.85,4.85,0,1,0-4.84,4.84A4.84,4.84,0,0,0,220.58,361Z" transform="translate(-0.02 -0.31)"/><circle class="cls-7" cx="332.56" cy="360.72" r="10.69"/><path class="cls-5" d="M337.45,361a4.85,4.85,0,1,0-4.84,4.84A4.84,4.84,0,0,0,337.45,361Z" transform="translate(-0.02 -0.31)"/><path class="cls-7" d="M423.31,452.09H369.16L377.45,432h0l3.33-8.1.91-2.22,1.5-3.61.31-.74,3.33-8.1.61-1.47,5.9-14.33a3.13,3.13,0,0,1,5.79,0l5.9,14.33.62,1.47,3.33,8.1.3.74,1.5,3.61.92,2.22L415,432h0Z" transform="translate(-0.02 -0.31)"/><polygon class="cls-14" points="372.69 443.17 369.14 451.77 423.29 451.77 419.74 443.17 372.69 443.17"/><rect class="cls-3" x="364.82" y="446.63" width="62.01" height="8.77"/><rect class="cls-15" x="413.43" y="446.63" width="13.4" height="8.77"/><path class="cls-14" d="M421.18,446.94h-7.66L407.37,432h0l-3.33-8.1-.92-2.22-1.5-3.62-.3-.73-3.33-8.1-.62-1.48-5-12.06.93-2.27a3.13,3.13,0,0,1,5.79,0l5.9,14.33.62,1.48,3.33,8.1.3.73,1.5,3.62.91,2.22L415,432h0Z" transform="translate(-0.02 -0.31)"/><polygon class="cls-5" points="408.95 417.02 383.47 417.02 386.81 408.92 405.62 408.92 408.95 417.02"/><polygon class="cls-5" points="415 431.69 415 431.7 377.42 431.7 377.42 431.69 380.75 423.59 411.67 423.59 415 431.69"/><polygon class="cls-8" points="408.95 417.02 401.3 417.02 397.96 408.92 405.62 408.92 408.95 417.02"/><polygon class="cls-8" points="415 431.69 415 431.7 407.35 431.7 407.35 431.69 404.01 423.59 411.67 423.59 415 431.69"/><path class="cls-4" d="M78.18,255.22a8.14,8.14,0,0,0,8.11-6.94,17.68,17.68,0,0,0,.14-2.2,16.16,16.16,0,0,0-16.15-16.16c-.37,0-.73,0-1.09,0a17.17,17.17,0,0,0-34.27,1.46c0,.42,0,.83,0,1.25a17.05,17.05,0,0,0-9.16-2.16A17.23,17.23,0,0,0,9.5,246.41c0,.07,0,.14,0,.21a8.19,8.19,0,0,0,8.2,8.61h60.5Z" transform="translate(-0.02 -0.31)"/><path class="cls-4" d="M463.81,267.92c12.78,0,13.48-19.23.72-19.85l-1,0a21.35,21.35,0,0,0-6.53,1,21.93,21.93,0,0,0-43.37.69,20.3,20.3,0,0,0-13.78-1.33c-11.17,2.87-8.82,19.5,2.71,19.5Z" transform="translate(-0.02 -0.31)"/><path class="cls-4" d="M310.36,173.17c12.78,0,13.48-19.22.72-19.85l-1.05,0a21.4,21.4,0,0,0-6.53,1,21.92,21.92,0,0,0-43.35.69,20.2,20.2,0,0,0-8.72-2,20.49,20.49,0,0,0-5.05.63c-11.17,2.88-8.83,19.5,2.71,19.5Z" transform="translate(-0.02 -0.31)"/><circle class="cls-7" cx="106.97" cy="177.76" r="30.62"/><path class="cls-16" d="M107.24,147.46a30.62,30.62,0,0,1-16.79,56.23h-.26a30.62,30.62,0,1,0,17-56.22Z" transform="translate(-0.02 -0.31)"/></g></svg>