<?xml version="1.0" encoding="utf-8"?>
<!-- Generator: Adobe Illustrator 18.1.1, SVG Export Plug-In . SVG Version: 6.00 Build 0)  -->
<svg version="1.1" xmlns="http://www.w3.org/2000/svg" xmlns:xlink="http://www.w3.org/1999/xlink" x="0px" y="0px"
	 viewBox="0 0 3710 3710" enable-background="new 0 0 3710 3710" xml:space="preserve">
<g id="Background">
</g>
<g id="Illustration">
	<g>
		<g id="Floor">
			<ellipse fill="#F5F5F5" cx="1851" cy="2647.8" rx="1821" ry="1051.4"/>
		</g>
		<g id="Shadows">
			<ellipse fill="#E0E0E0" cx="2136.8" cy="3156.6" rx="393.8" ry="227.4"/>
			<path fill="#E0E0E0" d="M1932.1,2386.8L878.8,2995.1c-29.6,17.1-81.4,15-115.6-4.8l-374-215.9c-34.2-19.8-37.9-49.6-8.3-66.8
				l1053.3-608.2c29.6-17.1,81.4-15,115.6,4.8l374,215.9C1958,2339.8,1961.8,2369.7,1932.1,2386.8z"/>
		</g>
		<g id="Plants">
			<g>
				<g>
					<path fill="#BA68C8" d="M3066.3,2599.2l83,48.2c0,0-41.9-133.6-18.6-268.1c8.8-50.7,27.2-76,33.7-89.5s56.5-97.4,12.5-136.1
						c-44-38.7-147.4,38.2-142.7,245.3C3036.6,2505.3,3066.3,2599.2,3066.3,2599.2z"/>
					<path opacity="0.5" enable-background="new    " d="M3066.3,2599.2l83,48.2c0,0-41.9-133.6-18.6-268.1
						c8.8-50.7,27.2-76,33.7-89.5s56.5-97.4,12.5-136.1c-44-38.7-147.4,38.2-142.7,245.3C3036.6,2505.3,3066.3,2599.2,3066.3,2599.2
						z"/>
					<path fill="#FFFFFF" d="M3104.9,2625.4c-1.5,0-3-0.9-3.5-2.5c-0.3-0.9-31.7-88-30-227.7c1.7-140.6,75.5-215.5,76.3-216.3
						c1.5-1.5,3.9-1.5,5.3,0c1.5,1.5,1.5,3.9,0,5.3c-0.7,0.7-72.4,73.7-74.1,211c-1.6,138.2,29.3,224.2,29.6,225
						c0.7,2-0.3,4.1-2.2,4.8C3105.8,2625.3,3105.3,2625.4,3104.9,2625.4z"/>
				</g>
				<g>
					<path fill="#BA68C8" d="M3130.7,2636.9l137.1,80.6c0,0,62.8-9.2,58-68.3c-4.8-59.1-30.3-73,1.5-99c31.8-26,39.9-27.7,38.4-53.1
						c-1.5-25.4-18.6-36.5-26.7-46.6c-8-10.1-30.5-31.2-14.7-61.9c15.8-30.7,37.2-60.3,5.4-74.4c-19-8.4-50.9,2.1-72,24.6
						c-21.1,22.5-38.6,38.6-58.6,43.8c-20,5.2-61.8,5.6-60.4,40.1s10.4,46.4,2,61.8C3124.9,2513.3,3057.5,2528.9,3130.7,2636.9z"/>
					<path opacity="0.2" enable-background="new    " d="M3130.7,2636.9l137.1,80.6c0,0,62.8-9.2,58-68.3c-4.8-59.1-30.3-73,1.5-99
						c31.8-26,39.9-27.7,38.4-53.1c-1.5-25.4-18.6-36.5-26.7-46.6c-8-10.1-30.5-31.2-14.7-61.9c15.8-30.7,37.2-60.3,5.4-74.4
						c-19-8.4-50.9,2.1-72,24.6c-21.1,22.5-38.6,38.6-58.6,43.8c-20,5.2-61.8,5.6-60.4,40.1s10.4,46.4,2,61.8
						C3124.9,2513.3,3057.5,2528.9,3130.7,2636.9z"/>
					<path fill="#FFFFFF" d="M3186.5,2673.5c-1.9,0-3.6-1.5-3.7-3.5c-0.2-2-15.1-206.4,126.9-340.6c1.5-1.4,3.9-1.4,5.3,0.1
						c1.4,1.5,1.4,3.9-0.1,5.3c-139.3,131.7-124.8,332.5-124.6,334.6c0.2,2.1-1.4,3.9-3.5,4.1
						C3186.7,2673.5,3186.6,2673.5,3186.5,2673.5z"/>
					<path fill="#FFFFFF" d="M3211.1,2498.3c-2,0-3.6-1.5-3.8-3.5c-4-53.6-41.3-81.2-41.7-81.5c-1.7-1.2-2.1-3.6-0.8-5.3
						c1.2-1.7,3.5-2.1,5.2-0.9c1.6,1.2,40.5,29.8,44.8,87c0.2,2.1-1.4,3.9-3.5,4C3211.3,2498.3,3211.2,2498.3,3211.1,2498.3z"/>
					<path fill="#FFFFFF" d="M3201,2533.2c-0.9,0-1.8-0.3-2.5-1c-1.5-1.4-1.7-3.8-0.3-5.3c1.5-1.7,37.2-40.3,119.9-28.9
						c2.1,0.3,3.5,2.2,3.2,4.2c-0.3,2.1-2.2,3.5-4.2,3.2c-78.4-10.8-112.9,26.2-113.3,26.5C3203,2532.8,3202,2533.2,3201,2533.2z"/>
				</g>
			</g>
			<g>
				<g>
					<path fill="#BA68C8" d="M552.8,2481.8l-41,86.8c0,0-41.4-133.8-136.8-231.3c-36-36.8-65.5-47.1-78.6-54.5
						c-13.1-7.5-101.8-48.1-87.5-104.9c14.3-56.8,143-52.1,256.7,121C524,2387.6,552.8,2481.8,552.8,2481.8z"/>
					<path opacity="0.5" enable-background="new    " d="M552.8,2481.8l-41,86.8c0,0-41.4-133.8-136.8-231.3
						c-36-36.8-65.5-47.1-78.6-54.5c-13.1-7.5-101.8-48.1-87.5-104.9c14.3-56.8,143-52.1,256.7,121
						C524,2387.6,552.8,2481.8,552.8,2481.8z"/>
					<path fill="#FFFFFF" d="M533.7,2525.9c-1.7,0-3.2-1.1-3.6-2.8c-0.2-0.9-23.5-89.2-103.3-202.1
						C347.5,2208.8,247,2189.4,246,2189.3c-2-0.4-3.4-2.3-3-4.4c0.4-2,2.3-3.4,4.4-3c1,0.2,104.4,20,185.5,134.8
						c80.6,114.1,104.2,203.7,104.5,204.6c0.5,2-0.7,4.1-2.7,4.6C534.3,2525.9,534,2525.9,533.7,2525.9z"/>
				</g>
				<g>
					<path fill="#BA68C8" d="M521.1,2549.3L454,2693.5c0,0-56.9,28-86.5-23.3c-29.6-51.3-16.5-77.3-57.4-80.6
						c-40.9-3.4-48.6-0.1-61.8-21.9c-13.2-21.8-5.4-40.7-4.5-53.5c0.9-12.9,7.4-43-23-59.3s-64.9-28.6-46.7-58.2
						c10.9-17.7,43.1-27.1,73.3-20.6c30.2,6.5,53.7,9.9,73.1,2.8c19.5-7.1,54.1-30.4,72.5-1.2c18.4,29.2,17.8,44.1,33.4,52
						C455.8,2444.3,520.1,2418.9,521.1,2549.3z"/>
					<path opacity="0.2" enable-background="new    " d="M521.1,2549.3L454,2693.5c0,0-56.9,28-86.5-23.3
						c-29.6-51.3-16.5-77.3-57.4-80.6c-40.9-3.4-48.6-0.1-61.8-21.9c-13.2-21.8-5.4-40.7-4.5-53.5c0.9-12.9,7.4-43-23-59.3
						s-64.9-28.6-46.7-58.2c10.9-17.7,43.1-27.1,73.3-20.6c30.2,6.5,53.7,9.9,73.1,2.8c19.5-7.1,54.1-30.4,72.5-1.2
						c18.4,29.2,17.8,44.1,33.4,52C455.8,2444.3,520.1,2418.9,521.1,2549.3z"/>
					<path fill="#FFFFFF" d="M493.8,2611.8c-1.3,0-2.6-0.7-3.3-1.9c-1-1.8-103-175.4-292.4-204.8c-2-0.3-3.5-2.2-3.1-4.3
						c0.3-2.1,2.2-3.5,4.3-3.1c193.1,29.9,296.8,206.7,297.8,208.5c1,1.8,0.4,4.1-1.4,5.1C495.1,2611.6,494.4,2611.8,493.8,2611.8z"
						/>
					<path fill="#FFFFFF" d="M374.2,2481.5c-1.3,0-2.5-0.7-3.2-1.9c-29-49.5-13.2-95.1-12.5-97.1c0.7-2,2.8-3,4.8-2.3
						c2,0.7,3,2.9,2.3,4.8c-0.2,0.4-15.2,44.3,11.9,90.7c1.1,1.8,0.5,4.1-1.3,5.1C375.5,2481.4,374.8,2481.5,374.2,2481.5z"/>
					<path fill="#FFFFFF" d="M290.6,2547.8c-1,0-2-0.4-2.8-1.2c-1.4-1.5-1.3-3.9,0.2-5.3c61.6-56.2,113-44.7,115.1-44.2
						c2,0.5,3.3,2.5,2.8,4.5c-0.5,2-2.5,3.3-4.5,2.8c-0.5-0.1-49.9-10.9-108.3,42.4C292.4,2547.5,291.5,2547.8,290.6,2547.8z"/>
				</g>
			</g>
		</g>
		<g id="Device">
			<g>
				<g>
					<polygon fill="#37474F" points="1585.7,113.8 1585.7,113.8 1585.7,113.8 					"/>
					<path fill="#37474F" d="M522.1,725.2c0-51.7,27.6-99.5,72.4-125.3l920.2-531.3c27.2-15.7,60.2-1,68.8,26.7
						c-5-21.5-18.4-40.5-37.9-52.1l-3.3-2c-22.9-13.6-49.1-20.8-75.7-20.8v0c-8.1-0.1-16.4,1.9-24.3,6.4L522.2,558.1
						c-44.8,25.8-72.4,73.6-72.4,125.3v1989.9c0,36.5,39.5,59.3,71.1,41l1.2-0.7V725.2z"/>
				</g>
				<path fill="#455A64" d="M1513.3,2224.9l-920.2,531.3c-31.6,18.2-71.1-4.6-71.1-41V725.2c0-51.7,27.6-99.5,72.4-125.3
					l920.2-531.3c31.6-18.2,71.1,4.6,71.1,41v1989.9C1585.7,2151.3,1558.1,2199.1,1513.3,2224.9z"/>
				<path fill="#263238" d="M522.1,2715.1V725.2c0-22.1,5.1-43.4,14.3-62.6l-71.1-44.1c-10,19.8-15.4,42-15.4,64.9v1985.8v4.1v16.6
					c0,16.1,8.5,30.9,22.3,39.2l36.7,21.8c12.7,7.6,27.2,11.6,42,11.6h18.1v0C544.4,2762.2,522.1,2742.6,522.1,2715.1z"/>
				<g>
					<path fill="#37474F" d="M1481.7,259.9v1672.6c0,45.7-24.4,87.8-63.9,110.7l-812.6,469.1c-6.5,3.8-13.4,5.5-20.2,5.6
						c9.4,21.8,36.7,32.7,59.4,19.6l812.6-469.1c39.5-22.8,63.9-65,63.9-110.7v-1656C1520.9,278.2,1502.4,261.3,1481.7,259.9z"/>
					<g>
						<path fill="#BA68C8" d="M585.1,2517.8c6.7-0.1,13.6-1.8,20.2-5.6l812.6-469.1c39.5-22.8,63.9-65,63.9-110.7V259.9
							c3.8,0.3-12.2-1.1-23.5,5.5L645.6,734.5c-39.5,22.8-63.9,65-63.9,110.7v1656c0,6.1,1.3,11.8,3.5,16.9
							C585.1,2518,585.1,2517.9,585.1,2517.8z"/>
					</g>
					<g opacity="0.5">
						<path fill="#FFFFFF" d="M585.1,2517.8c6.7-0.1,13.6-1.8,20.2-5.6l812.6-469.1c39.5-22.8,63.9-65,63.9-110.7V259.9
							c3.8,0.3-12.2-1.1-23.5,5.5L645.6,734.5c-39.5,22.8-63.9,65-63.9,110.7v1656c0,6.1,1.3,11.8,3.5,16.9
							C585.1,2518,585.1,2517.9,585.1,2517.8z"/>
					</g>
				</g>
				<g>
					<path fill="#263238" d="M925.1,489.4c0,9.3-6.5,20.7-14.6,25.3c-8.1,4.7-14.6,0.9-14.6-8.5s6.5-20.7,14.6-25.3
						C918.6,476.3,925.1,480.1,925.1,489.4z"/>
					<path fill="#263238" d="M979.5,458c0,9.3-6.5,20.7-14.6,25.3c-8.1,4.7-14.6,0.9-14.6-8.5c0-9.3,6.5-20.7,14.6-25.3
						C973,444.8,979.5,448.6,979.5,458z"/>
					<path fill="#263238" d="M1199.3,348l-177,102.2c-7,4-12.7-0.3-12.7-9.6l0,0c0-9.3,5.7-20.2,12.7-24.2l177-102.2
						c7-4,12.7,0.2,12.7,9.6l0,0C1211.9,333.1,1206.3,344,1199.3,348z"/>
				</g>
				<path fill="#263238" d="M1169.3,2287.7L1169.3,2287.7c10.6,0,17.4,11.2,17.4,28.6c0,27.3-17.1,60.1-37.2,71.8l-84.6,48.9
					c-4.5,2.6-8.8,3.9-12.6,3.9c-10.6,0-17.4-11.2-17.4-28.6c0-27.3,17.1-60.1,37.2-71.8l84.6-48.9
					C1161.2,2289,1165.5,2287.7,1169.3,2287.7 M1169.3,2280.5c-5,0-10.5,1.6-16.2,4.9l-84.6,48.9c-22.6,13-40.9,48-40.9,78.1
					c0,22.4,10.1,35.8,24.6,35.8c5,0,10.5-1.6,16.2-4.9l84.6-48.9c22.6-13,40.9-48,40.9-78.1
					C1193.9,2293.9,1183.8,2280.5,1169.3,2280.5L1169.3,2280.5z"/>
			</g>
		</g>
		<g id="Screen">
			<g>
				<g>
					<g>
						<g>
							<path fill="#E6E6E6" d="M701.5,962.4v1874.8c0,34,12.5,56.8,31.6,64.3l0.5,0.2l0.1,0.1l81,44.4l-0.4-72.1l-9-1944l-85.6-43.8
								C708.4,910.5,701.5,937.4,701.5,962.4z"/>
							<path fill="#E6E6E6" d="M819.1,2953.5l-87.7-48c-21.7-9-34.3-34.3-34.3-68.3V962.4c0-24.7,6.6-52.4,18.6-78l1.9-4.1l91.9,47
								l0,2.7l9,1944L819.1,2953.5z M735.8,2897.9l74.5,40.8l-0.4-64.7l-9-1941.4l-79.1-40.5c-10.3,23.4-15.9,48.1-15.9,70.2v1874.8
								c0,30.6,10.8,53.1,28.8,60.2L735.8,2897.9L735.8,2897.9z"/>
						</g>
						<g>
							<path fill="#E0E0E0" d="M719.7,886.2l85.6,43.8L1721,397.2l61.1-35.6l-84.5-47.6l-2.4-1.4v-0.1c-13.5-8.1-31.1-7.6-50.5,3.7
								L777.9,816.7C754.6,830.1,733.7,856.1,719.7,886.2z"/>
							<path fill="#E0E0E0" d="M805.3,934.3c-0.7,0-1.4-0.2-2-0.5l-85.6-43.8c-2.1-1.1-3-3.6-2-5.7c14.9-32,36.7-58.1,60-71.5
								l866.8-500.5c20.1-11.6,39.6-12.9,55-3.6c0.2,0.1,0.4,0.3,0.6,0.5l1.7,1l84.4,47.5c1.4,0.8,2.2,2.2,2.2,3.8
								c0,1.6-0.8,3-2.2,3.8L807.5,933.7C806.8,934.1,806,934.3,805.3,934.3z M725.5,884.3l79.7,40.8l968.2-563.3l-80.3-45.3
								c-0.2-0.1-0.5-0.3-0.7-0.5c-12.5-7.1-28.6-5.7-45.5,4.1L780.1,820.5C759.3,832.5,739.5,855.6,725.5,884.3z"/>
						</g>
						<path fill="#FAFAFA" d="M785.5,1009.6v1866.3c0,29.4,9.4,50.5,24.3,60.4l4.9,2.7c13,6.1,29.3,4.8,47.1-5.4l419-241.9
							l447.8-269.5c42.2-24.3,76.4-78.7,76.4-134.9V421c0-28.4-8.7-49-22.8-59.4c-2.4-1.8-5-3.3-7.8-4.4
							c-12.7-5.4-28.6-3.8-45.8,6.1L861.8,872.3c-22.5,12.9-42.6,29.1-56.5,57.7C793,955,785.5,983.3,785.5,1009.6z"/>
					</g>
					<g>
						<path fill="#FAFAFA" d="M1728.6,2422.1c-178.4,106.4-642.4,383.3-872,521.7c-30.1,18.1-68.4-3.6-68.4-38.7V986
							c0-44.4,23.6-85.5,61.9-108l882.7-517.3c30.1-17.6,67.9,4.1,67.9,38.9v1895.5C1800.7,2347.2,1773.3,2395.4,1728.6,2422.1z"/>
						<path fill="#EBEBEB" d="M1726.4,2418.4c-140,83.5-280,167.1-420,250.8c-82.9,49.5-165.7,99.1-248.5,148.7
							c-37.8,22.7-75.7,45.3-113.5,68c-16.5,9.9-33.1,19.9-49.6,29.8c-15.3,9.2-31.5,22.2-48.4,28.1c-28,9.7-53.2-12.7-53.9-40.3
							c-0.1-4.5,0-8.9,0-13.4c0-21.6,0-43.2,0-64.8c0-84,0-168.1,0-252.1c0-120.3,0-240.7,0-361c0-135.2,0-270.4,0-405.6
							c0-127.3,0-254.6,0-382c0-98,0-196,0-294c0-46.9-0.1-93.7,0-140.6c0.1-46.1,22.4-86.1,62.2-109.7c20.2-12,40.5-23.8,60.8-35.6
							c95.1-55.7,190.1-111.4,285.2-167.1c112.6-66,225.3-132,337.9-198c64.1-37.6,128-75.4,192.3-112.7
							c19.9-11.5,45-10.4,58.8,10.4c5.6,8.5,6.6,17.9,6.6,27.5c0.1,16.7,0,33.4,0,50.2c0,77.2,0,154.5,0,231.7
							c0,116.9,0,233.9,0,350.8c0,134.2,0,268.5,0,402.7c0,129.5,0,259,0,388.5c0,101.5,0,203,0,304.5c0,51.5,0,103,0,154.5
							C1796.3,2341.4,1772.9,2389.8,1726.4,2418.4c-4.8,2.9-0.4,10.5,4.4,7.5c48.5-29.8,74.3-80.6,74.3-136.9c0-17.9,0-35.7,0-53.6
							c0-80,0-159.9,0-239.9c0-119.7,0-239.5,0-359.2c0-137.1,0-274.2,0-411.3c0-129.4,0-258.7,0-388.1c0-99.4,0-198.9,0-298.3
							c0-45.6,0.5-91.2,0-136.7c-0.4-41.5-42.2-63.5-77.4-43.2c-21.3,12.3-42.3,24.8-63.5,37.2c-97.7,57.2-195.3,114.5-293,171.7
							c-113.6,66.6-227.3,133.2-340.9,199.8c-60.3,35.3-120.8,70.4-180.9,106c-41.7,24.8-65.3,67.8-65.5,116.1c0,15.7,0,31.4,0,47.1
							c0,76.3,0,152.5,0,228.8c0,117.3,0,234.6,0,351.9c0,136.5,0,273,0,409.6c0,131.2,0,262.5,0,393.7c0,104.3,0,208.7,0,313
							c0,54.1,0,108.3,0,162.4c0,3-0.1,6,0,9c1,32.8,32.6,58,64.9,47.2c16.5-5.5,32-17.9,46.8-26.8c16.9-10.1,33.7-20.3,50.6-30.4
							c37.7-22.6,75.4-45.2,113.1-67.8c164.9-98.8,329.9-197.4,495-295.9c58.8-35.1,117.6-70.2,176.4-105.3
							C1735.6,2423,1731.2,2415.5,1726.4,2418.4z"/>
					</g>
					<path fill="#EBEBEB" d="M850,878l882.7-517.3c30.1-17.6,67.9,4.1,67.9,38.9v83.3l-0.3,0L788.2,1067.3V986
						C788.2,941.6,811.7,900.5,850,878z"/>
				</g>
				<g>
					
						<ellipse transform="matrix(-0.866 -0.5 0.5 -0.866 1796.2188 2957.6611)" fill="#BA68C8" cx="1294.4" cy="1238.2" rx="187.2" ry="324.2"/>
					
						<ellipse transform="matrix(-0.866 -0.5 0.5 -0.866 1796.2188 2957.6611)" opacity="0.5" fill="#FFFFFF" enable-background="new    " cx="1294.4" cy="1238.2" rx="187.2" ry="324.2"/>
					<g>
						<path fill="#37474F" d="M1253.3,1239.2c-5.7,0-10.3-4.6-10.3-10.3v-67.8c0-30,20.3-65.2,46.3-80.1c14.3-8.3,28.3-9.3,39.4-2.9
							c11.1,6.4,17.2,19,17.2,35.5v67.8c0,5.7-4.6,10.3-10.3,10.3c-5.7,0-10.3-4.6-10.3-10.3v-67.8c0-8.7-2.5-15.2-6.9-17.7
							c-4.4-2.5-11.2-1.5-18.8,2.9c-19.5,11.3-36,39.8-36,62.3v67.8C1263.6,1234.6,1259,1239.2,1253.3,1239.2z"/>
						<g>
							<path fill="#BA68C8" d="M1377.5,1137.7c-4-1.9-9-1.6-14.5,1.6l-137.1,79.2c-5.5,3.2-10.5,8.6-14.5,15.2
								c-5.4,8.8-8.9,19.6-8.9,29.6v118.7c0,8.6,2.6,14.9,6.8,18.1c0.7,0.6,1.6,1,2.4,1.4l0,0l0,0c3.9,1.7,8.8,1.3,14.2-1.8
								l137.1-79.2c12.9-7.5,23.4-27.5,23.4-44.7V1157C1386.4,1147.1,1382.9,1140.3,1377.5,1137.7z"/>
						</g>
						<g>
							<path fill="#455A64" d="M1310,1261.4l13.2,38l-46.5,26.8l11.6-46.9l1.6-6.6c-7.8,0.2-13.3-5.8-13.3-16.5
								c0-4.1,0.8-8.4,2.2-12.7c3.7-11.3,11.8-22.2,21.1-27.6c12.8-7.4,23.2-1.4,23.2,13.4c0,10.7-5.5,23-13.3,31.9L1310,1261.4z"/>
							<path fill="#37474F" d="M1288.4,1279.3l1.6-6.6c-7.8,0.2-13.3-5.8-13.3-16.5c0-4.1,0.8-8.4,2.2-12.7l31.1,17.9l13.2,38
								L1288.4,1279.3z"/>
						</g>
					</g>
				</g>
				<g>
					<path fill="#BA68C8" d="M1632.5,1677l-676.2,390.4c-28,16.2-50.7-1-50.7-38.3v-102.4c0-37.3,22.7-80.6,50.7-96.8l676.3-390.4
						c28-16.2,50.7,1,50.7,38.3v102.4C1683.2,1617.6,1660.5,1660.9,1632.5,1677z"/>
					<g>
						<g>
							<rect x="1064.9" y="1820.7" fill="#FAFAFA" width="13.1" height="108.4"/>
							
								<rect x="1017.3" y="1868.4" transform="matrix(-0.866 0.5001 -0.5001 -0.866 2937.1055 2962.7043)" fill="#FAFAFA" width="108.4" height="13.1"/>
							
								<rect x="1064.8" y="1836.7" transform="matrix(-0.5 0.866 -0.866 -0.5 3230.8835 1884.6915)" fill="#FAFAFA" width="13.1" height="76.7"/>
							
								<rect x="1005.1" y="1868.5" transform="matrix(-0.5001 0.866 -0.866 -0.5001 3231.0781 1884.7382)" fill="#FAFAFA" width="132.8" height="13.1"/>
						</g>
						<g>
							<rect x="1287.9" y="1699.3" fill="#FAFAFA" width="13.1" height="108.4"/>
							
								<rect x="1240.3" y="1746.9" transform="matrix(-0.866 0.5001 -0.5001 -0.866 3292.4158 2624.5896)" fill="#FAFAFA" width="108.4" height="13.1"/>
							
								<rect x="1287.8" y="1715.2" transform="matrix(-0.5 0.866 -0.866 -0.5 3460.1936 1509.4341)" fill="#FAFAFA" width="13.1" height="76.7"/>
							
								<rect x="1228.1" y="1747" transform="matrix(-0.5001 0.866 -0.866 -0.5001 3460.3921 1509.4585)" fill="#FAFAFA" width="132.8" height="13.1"/>
						</g>
						<g>
							<rect x="1510.8" y="1577.8" fill="#FAFAFA" width="13.1" height="108.4"/>
							
								<rect x="1463.1" y="1625.6" transform="matrix(-0.866 0.5 -0.5 -0.866 3647.3938 2286.9011)" fill="#FAFAFA" width="108.4" height="13.1"/>
							
								<rect x="1510.8" y="1593.8" transform="matrix(-0.5 0.866 -0.866 -0.5 3689.4885 1134.1599)" fill="#FAFAFA" width="13.1" height="76.7"/>
							
								<rect x="1450.9" y="1625.4" transform="matrix(-0.5 0.866 -0.866 -0.5 3689.3071 1133.9561)" fill="#FAFAFA" width="132.8" height="13.1"/>
						</g>
					</g>
				</g>
				<g>
					<path fill="#BA68C8" d="M1652.7,1818.2c9.1,0,13.1,13.5,13.1,26.9v102.4c0,31.1-19.2,68.6-41.9,81.7l-676.2,390.4
						c-4.2,2.5-8.2,3.7-11.4,3.7c-9.1,0-13.1-13.5-13.1-26.9V2294c0-31.1,19.2-68.6,41.9-81.7l676.2-390.4
						C1645.5,1819.5,1649.4,1818.2,1652.7,1818.2 M1652.6,1800.8c-6.2,0-13,2-20.1,6.1l-676.2,390.4c-28,16.2-50.7,59.5-50.7,96.8
						v102.4c0,27.8,12.6,44.4,30.5,44.4c6.2,0,13-2,20.1-6.1l676.3-390.4c28-16.2,50.7-59.5,50.7-96.8v-102.4
						C1683.2,1817.4,1670.6,1800.8,1652.6,1800.8L1652.6,1800.8z"/>
					
						<text transform="matrix(0.866 -0.5 0 1 1128.5304 2246.4136)" fill="#BA68C8" font-family="'ArialMT'" font-size="101.2317" letter-spacing="17">enter</text>
				</g>
			</g>
		</g>
		<g id="Icons">
			<g>
				<path fill="#455A64" d="M2648,653.7c0,12.6,9,27.9,20.2,34.3c11.1,6.3,20.2,1.2,20.2-11.4s-9-27.9-20.2-34.3
					C2657,636,2648,641.1,2648,653.7z"/>
				<path fill="#455A64" d="M2377.9,735c-15.4,0-32.5-5-50.1-15l-63.9-36.2c-2.1-1.2-2.8-3.8-1.6-5.9c1.2-2.1,3.9-2.8,5.9-1.6
					l63.9,36.2c27.6,15.6,53.2,18.1,72.1,7.1c18.5-10.8,28.7-33.6,28.7-64.1c0-33.8,11.7-59.3,33.1-71.7c21.7-12.7,50.4-10.2,80.8,7
					l103.3,58.5c2.1,1.2,2.8,3.8,1.6,5.9c-1.2,2.1-3.9,2.8-5.9,1.6l-103.3-58.5c-27.6-15.6-53.2-18.1-72.1-7.1
					c-18.5,10.8-28.8,33.6-28.8,64.1c0,33.8-11.7,59.2-33.1,71.7C2399.4,732.3,2389.1,735,2377.9,735z"/>
				<path fill="#455A64" d="M2237.4,664.2c0,10.2,7.3,22.6,16.3,27.7s16.3,1,16.3-9.2c0-10.2-7.3-22.6-16.3-27.7
					C2244.7,649.8,2237.4,654,2237.4,664.2z"/>
			</g>
			<g>
				<path fill="#455A64" d="M2648,1416c0,12.6,9,27.9,20.2,34.3c11.1,6.3,20.2,1.2,20.2-11.4c0-12.6-9-27.9-20.2-34.3
					C2657,1398.2,2648,1403.3,2648,1416z"/>
				<path fill="#455A64" d="M2648.8,1425.5c-0.7,0-1.5-0.2-2.1-0.6l-103.3-58.5c-60.4-34.2-109.6-117.8-109.6-186.3
					c0-65.7-47.2-145.9-105.2-178.7l-64.7-36.7c-2.1-1.2-2.8-3.8-1.6-5.9c1.2-2.1,3.9-2.8,5.9-1.6l64.7,36.7
					c60.4,34.2,109.6,117.8,109.6,186.3c0,65.7,47.2,145.9,105.2,178.7l103.3,58.5c2.1,1.2,2.8,3.8,1.6,5.9
					C2651.7,1424.7,2650.3,1425.5,2648.8,1425.5z"/>
				<path fill="#455A64" d="M2237.4,943.5c0,10.2,7.3,22.6,16.3,27.7c9,5.1,16.3,1,16.3-9.2c0-10.2-7.3-22.6-16.3-27.7
					C2244.7,929.2,2237.4,933.3,2237.4,943.5z"/>
			</g>
			<g>
				<g>
					<path fill="#BA68C8" d="M3268.9,571.5l-427.1-241.9c-12.2-7.1-23.2-6.5-31-0.1l-36.9,25.5l25.2,31.1v450.2
						c0,31.5,19.1,68.1,42.8,81.7l416.5,235.8l2,33.5l38.9-26.6c7.7-5.9,12.5-17.3,12.5-33.1V653.2
						C3311.7,621.8,3292.5,585.2,3268.9,571.5z"/>
					<path opacity="0.3" enable-background="new    " d="M3268.9,571.5l-427.1-241.9c-12.2-7.1-23.2-6.5-31-0.1l-36.9,25.5
						l25.2,31.1v450.2c0,31.5,19.1,68.1,42.8,81.7l416.5,235.8l2,33.5l38.9-26.6c7.7-5.9,12.5-17.3,12.5-33.1V653.2
						C3311.7,621.8,3292.5,585.2,3268.9,571.5z"/>
					<path fill="#BA68C8" d="M3232.6,1185l-427.1-241.9c-23.6-13.6-42.8-50.2-42.8-81.7V386.9c0-31.5,19.2-46,42.8-32.3l427.1,241.9
						c23.6,13.6,42.8,50.2,42.8,81.7v474.4C3275.4,1184.2,3256.2,1198.6,3232.6,1185z"/>
				</g>
				<g>
					<path fill="#FFFFFF" d="M3142.8,774.5c-1.9,0-3.7-1.3-4.2-3.2c-8.9-33.2-23.4-66.2-41.8-95.2c-1.3-2-0.7-4.7,1.3-6
						c2-1.3,4.7-0.7,6,1.3c18.9,29.8,33.7,63.6,42.9,97.6c0.6,2.3-0.7,4.7-3.1,5.3C3143.6,774.4,3143.2,774.5,3142.8,774.5z"/>
					<path fill="#FFFFFF" d="M3152.6,863.1c-0.1,0-0.2,0-0.3,0c-2.4-0.2-4.2-2.2-4.1-4.6c0.3-4.7,0.5-9.5,0.5-14.5
						c0-14.3-1.3-29.3-3.9-44.5c-0.4-2.4,1.2-4.6,3.6-5c2.4-0.4,4.6,1.2,5,3.6c2.7,15.7,4.1,31.2,4.1,46c0,5.2-0.2,10.2-0.5,15.1
						C3156.8,861.3,3154.9,863.1,3152.6,863.1z"/>
					<path fill="#FFFFFF" d="M2885.9,718.4c-2.2,0-4.1-1.7-4.3-4c-0.7-7.6-1-15.1-1-22.4c0-42.3,11.4-77.2,32.1-98.4
						c1.7-1.7,4.4-1.8,6.2-0.1c1.7,1.7,1.8,4.4,0.1,6.2c-19.1,19.5-29.6,52.3-29.6,92.3c0,7.1,0.3,14.3,1,21.7
						c0.2,2.4-1.6,4.5-4,4.7C2886.2,718.4,2886,718.4,2885.9,718.4z"/>
					<path fill="#FFFFFF" d="M3078.7,647.8c-1.3,0-2.5-0.5-3.4-1.6c-18.3-22.4-38-39.6-58.5-51.3c-29-16.4-56.2-19.6-78.6-9.1
						c-2.2,1-4.8,0.1-5.8-2.1c-1-2.2-0.1-4.8,2.1-5.8c25.1-11.7,55-8.4,86.6,9.5c21.5,12.2,42,30.1,60.9,53.3
						c1.5,1.9,1.2,4.6-0.6,6.1C3080.7,647.5,3079.7,647.8,3078.7,647.8z"/>
					<path fill="#FFFFFF" d="M2916,721.7c-2.3,0-4.3-1.8-4.4-4.2c-0.1-2.7-0.2-5.4-0.2-8.1c0-31,7.6-56.3,21.9-73.1
						c1.6-1.8,4.3-2.1,6.1-0.5c1.8,1.6,2,4.3,0.5,6.1c-13,15.2-19.9,38.6-19.9,67.4c0,2.6,0.1,5.1,0.2,7.7c0.1,2.4-1.8,4.4-4.2,4.5
						C2916.1,721.7,2916,721.7,2916,721.7z"/>
					<path fill="#FFFFFF" d="M2950.2,631.9c-1.5,0-2.9-0.7-3.7-2.1c-1.3-2-0.6-4.7,1.4-6c10.9-6.7,23.4-9.4,37-8.1
						c2.4,0.2,4.2,2.4,3.9,4.8c-0.2,2.4-2.4,4.1-4.8,3.9c-11.8-1.2-22.4,1.1-31.6,6.8C2951.7,631.7,2951,631.9,2950.2,631.9z"/>
					<path fill="#FFFFFF" d="M3142.8,919.2c-1.7,0-3.4-1-4-2.7l-5.1-12.6c-10.4-25.7-15.8-52.4-15.8-77.1
						c0-73.9-45.3-159.5-101-191.1c-2.1-1.2-2.8-3.8-1.6-5.9c1.2-2.1,3.9-2.8,5.9-1.6c58.1,32.9,105.4,121.9,105.4,198.4
						c0,23.9,5.2,49.4,15.2,74.1l5.1,12.6c0.9,2.2-0.2,4.8-2.4,5.7C3143.9,919.1,3143.4,919.2,3142.8,919.2z"/>
					<path fill="#FFFFFF" d="M2942.6,869.1c-1.8,0-3.5-1.1-4.1-2.9c-22-60-27.1-126.7-27.1-127.4c-0.2-2.4,1.6-4.5,4-4.7
						c2.1-0.2,4.5,1.6,4.7,4c0,0.7,5,66.1,26.6,125c0.8,2.3-0.3,4.8-2.6,5.6C2943.6,869,2943.1,869.1,2942.6,869.1z"/>
					<path fill="#FFFFFF" d="M3117.2,948.6c-1.8,0-3.4-1.1-4.1-2.8l-11.6-31.3c-12.3-33.1-18.8-66.2-18.8-95.9v-34.3
						c0-40.7-29.2-90.3-65.1-110.7c-16.8-9.5-32.3-11.1-43.6-4.5c-11.1,6.5-17.2,20.3-17.2,38.8v30.3c0,44.4,10.1,94.1,29.2,143.8
						l14.4,37.5c0.9,2.2-0.3,4.8-2.5,5.6c-2.2,0.9-4.8-0.3-5.6-2.5l-14.4-37.5c-19.5-50.7-29.7-101.5-29.7-147v-30.3
						c0-21.8,7.7-38.3,21.6-46.4c14.2-8.3,32.7-6.7,52.3,4.4c38.4,21.7,69.6,74.8,69.6,118.3v34.3c0,28.6,6.3,60.7,18.2,92.8
						l11.6,31.3c0.8,2.3-0.3,4.8-2.6,5.6C3118.2,948.5,3117.7,948.6,3117.2,948.6z"/>
					<path fill="#FFFFFF" d="M3078.7,961.1c-1.9,0-3.6-1.2-4.2-3.1l-6.1-20.5c-11.5-39-17.4-76.5-17.4-111.4v-53
						c0-21.9-15.7-48.6-35-59.5c-8.6-4.9-16.5-5.8-22.2-2.5c-5.5,3.2-8.5,10.2-8.5,19.8c0,58.9,17.9,126.8,50.5,191.3l12.3,24.3
						c1.1,2.2,0.2,4.8-1.9,5.9c-2.1,1.1-4.8,0.2-5.9-1.9l-12.3-24.3c-33.2-65.7-51.4-135-51.4-195.3c0-12.8,4.6-22.5,12.9-27.3
						c8.4-4.9,19.4-4.1,30.8,2.4c21.7,12.3,39.4,42.4,39.4,67.1v53c0,34.2,5.7,70.8,17,109l6.1,20.5c0.7,2.3-0.6,4.7-2.9,5.4
						C3079.6,961,3079.2,961.1,3078.7,961.1z"/>
					<path fill="#FFFFFF" d="M3029.9,869.1c-2,0-3.8-1.4-4.3-3.4l-4-18.7c-3.8-17.9-5.8-36.3-5.8-54.5v-49.1c0-2.4,2-4.4,4.4-4.4
						c2.4,0,4.4,2,4.4,4.4v49.1c0,17.7,1.9,35.4,5.6,52.7l4,18.7c0.5,2.4-1,4.7-3.3,5.2C3030.5,869,3030.2,869.1,3029.9,869.1z"/>
					<path fill="#FFFFFF" d="M2895.4,774.5c-2.2,0-4.1-1.7-4.3-3.9l-2.5-25.5c-0.2-2.4,1.5-4.5,3.9-4.8c2.6-0.2,4.5,1.5,4.8,3.9
						l2.5,25.5c0.2,2.4-1.5,4.5-3.9,4.8C2895.7,774.5,2895.5,774.5,2895.4,774.5z"/>
				</g>
			</g>
			<g>
				<g>
					<path fill="#BA68C8" d="M3268.9,1379.5l-427.1-241.9c-12.2-7.1-23.2-6.5-31-0.1l-36.9,25.5l25.2,31.1v450.2
						c0,31.5,19.1,68.1,42.8,81.7l416.5,235.8l2,33.5l38.9-26.6c7.7-5.9,12.5-17.3,12.5-33.1v-474.4
						C3311.7,1429.7,3292.5,1393.1,3268.9,1379.5z"/>
					<path opacity="0.3" enable-background="new    " d="M3268.9,1379.5l-427.1-241.9c-12.2-7.1-23.2-6.5-31-0.1l-36.9,25.5
						l25.2,31.1v450.2c0,31.5,19.1,68.1,42.8,81.7l416.5,235.8l2,33.5l38.9-26.6c7.7-5.9,12.5-17.3,12.5-33.1v-474.4
						C3311.7,1429.7,3292.5,1393.1,3268.9,1379.5z"/>
					<path fill="#BA68C8" d="M3232.6,1993l-427.1-241.9c-23.6-13.6-42.8-50.2-42.8-81.7v-474.4c0-31.5,19.2-46,42.8-32.3
						l427.1,241.9c23.6,13.6,42.8,50.2,42.8,81.7v474.4C3275.4,1992.1,3256.2,2006.6,3232.6,1993z"/>
				</g>
				<g>
					<path fill="#FFFFFF" d="M2857.8,1327.3c-2.4,0-4.4-2-4.4-4.4v-29.4c0-5.9,3.1-11.3,8.3-14.3c5.3-3.1,11.7-3.1,17-0.1l30.8,17.5
						c2.1,1.2,2.8,3.8,1.6,5.9c-1.2,2.1-3.9,2.8-5.9,1.6l-30.8-17.5c-2.6-1.5-5.7-1.5-8.3,0.1c-2.5,1.5-4,3.9-4,6.8v29.4
						C2862.1,1325.3,2860.2,1327.3,2857.8,1327.3z"/>
					<path fill="#FFFFFF" d="M2907.4,1731.7c-0.7,0-1.5-0.2-2.1-0.6l-28.8-16.3c-14.2-8-23-23-23-39.1v-27.1c0-2.4,2-4.4,4.4-4.4
						c2.4,0,4.4,2,4.4,4.4v27.1c0,13,7.1,25,18.6,31.5l28.8,16.3c2.1,1.2,2.8,3.8,1.6,5.9
						C2910.3,1730.9,2908.9,1731.7,2907.4,1731.7z"/>
					<path fill="#FFFFFF" d="M3167.8,1877.4c-2.9,0-5.8-0.7-8.4-2.2l-30.8-17.5c-2.1-1.2-2.8-3.8-1.6-5.9c1.2-2.1,3.9-2.8,5.9-1.6
						l30.8,17.5c2.6,1.5,5.7,1.5,8.3-0.1c2.5-1.5,4-3.9,4-6.8v-29.4c0-2.4,2-4.4,4.4-4.4c2.4,0,4.4,2,4.4,4.4v29.4
						c0,5.9-3.1,11.3-8.3,14.3C3173.7,1876.6,3170.7,1877.4,3167.8,1877.4z"/>
					<path fill="#FFFFFF" d="M3180.3,1510c-2.4,0-4.4-2-4.4-4.4v-27.1c0-13-7.1-25-18.6-31.5l-28.8-16.3c-2.1-1.2-2.8-3.8-1.6-5.9
						c1.2-2.1,3.9-2.8,5.9-1.6l28.8,16.3c14.2,8,23,23,23,39.1v27.1C3184.6,1508.1,3182.7,1510,3180.3,1510z"/>
				</g>
				<g>
					<path fill="#FFFFFF" d="M2896.4,1474c0.7,51.5,9,101.2,21,146.5c33.2,125,163.9,201.9,199.8,117.2
						c14.3-33.7,24.3-76.8,24.3-131.3c0-76.7-54.9-170-122.6-208.4C2950,1358.9,2895.4,1395.2,2896.4,1474z"/>
				</g>
				<polygon fill="#E0E0E0" points="3014.7,1543.8 3014.7,1626 2979,1599.3 				"/>
				<g>
					<path fill="#E0E0E0" d="M2948.3,1494.8c0,7.4,5.3,16.3,11.8,20c6.5,3.7,11.8,0.7,11.8-6.7c0-7.4-5.3-16.3-11.8-20
						C2953.5,1484.4,2948.3,1487.4,2948.3,1494.8z"/>
					<path fill="#E0E0E0" d="M3057.5,1557.3c0,7.4,5.3,16.3,11.8,20c6.5,3.7,11.8,0.7,11.8-6.7c0-7.4-5.3-16.3-11.8-20
						C3062.8,1547,3057.5,1550,3057.5,1557.3z"/>
				</g>
				<path fill="#E0E0E0" d="M3002.9,1666.2l39.9-6.8C3042.8,1659.4,3034.3,1702,3002.9,1666.2z"/>
			</g>
		</g>
		<g id="Character">
			<g>
				<path fill="#FFA8A7" d="M2360.1,1742.9c0,0,63.6-4.3,99.6,84.1c22.4,54.9,49.7,139.8,67.1,196.2c10.8,35-0.3,73.1-28.4,96.7
					l-110.8,93l-39.7-72.1c0,0,42.8-57,75.7-86.5l-75.7-227.2L2360.1,1742.9z"/>
				<path fill="#BA68C8" d="M2389.4,2012.6c0,0,101,13.4,126.2-64.5c0,0-43.3-113.9-63.1-151.8c-19.8-37.9-60.4-65.4-92.4-53.4
					C2328.1,1754.8,2389.4,2012.6,2389.4,2012.6z"/>
				<path opacity="0.4" fill="#FFFFFF" enable-background="new    " d="M2389.4,2012.6c0,0,101,13.4,126.2-64.5
					c0,0-43.3-113.9-63.1-151.8c-19.8-37.9-60.4-65.4-92.4-53.4C2328.1,1754.8,2389.4,2012.6,2389.4,2012.6z"/>
				<path fill="#37474F" d="M2322,3035.2c0,0-48-41.1-66.6-43s-50.9,30-23.6,85.4c7.6,15.4,38.4,32.1,57.7,61.7
					c19.3,29.5,36.6,51.8,66.2,47.7c29.5-4,33.4-20.7,31.5-40c-1.9-19.3-10.6-52.3-10.6-52.3L2322,3035.2z"/>
				<path fill="#263238" d="M2357.2,3178.1c-30.5,4.2-48.3-18.7-68.2-49.2s-51.6-47.7-59.5-63.6c-3.4-7-5.9-13.6-7.7-19.8
					c1.1,9.6,4.1,20.2,9.9,32.1c7.6,15.4,38.4,32.1,57.7,61.7c19.3,29.5,36.6,51.8,66.2,47.7c22.6-3.1,30.1-13.6,31.6-27.1
					C2383.3,3168.9,2374.7,3175.7,2357.2,3178.1z"/>
				<path fill="#EBEBEB" d="M2296.4,3088c-0.7,0-1.5-0.2-2.2-0.5c-2.3-1.2-3.1-4-1.9-6.3c0.6-1.2,15.6-28.7,45.1-35.4
					c2.6-0.6,5,1,5.6,3.5c0.6,2.5-1,5-3.5,5.6c-25.3,5.7-38.8,30.4-39,30.7C2299.7,3087.1,2298.1,3088,2296.4,3088z"/>
				<path fill="#EBEBEB" d="M2278.5,3071.5c-0.7,0-1.5-0.2-2.2-0.5c-2.3-1.2-3.1-4-1.9-6.3c0.6-1.2,15.6-28.7,45.1-35.4
					c2.5-0.6,5,1,5.6,3.5c0.6,2.5-1,5-3.5,5.6c-25.3,5.7-38.8,30.4-39,30.7C2281.8,3070.6,2280.2,3071.5,2278.5,3071.5z"/>
				<path fill="#EBEBEB" d="M2258,3055c-0.7,0-1.5-0.2-2.2-0.5c-2.3-1.2-3.1-4-1.9-6.3c0.6-1.2,15.6-28.7,45.1-35.4
					c2.5-0.6,5,1,5.6,3.5c0.6,2.5-1,5-3.5,5.6c-25.3,5.7-38.8,30.4-39,30.7C2261.3,3054.1,2259.7,3055,2258,3055z"/>
				<path fill="#37474F" d="M2066.7,3169.9c0,0-64.3-20.9-83.5-15.1c-19.2,5.8-38,50.6,11.8,94.1c13.8,12.1,51.1,15.9,82.3,37.2
					c31.2,21.3,57.4,36.1,84.9,19.9s25.3-34.7,20.4-54.8c-6.2-25.6-11.2-44.3-11.2-44.3L2066.7,3169.9z"/>
				<path fill="#263238" d="M2160.1,3296.6c-28.4,16.6-55.4,1.4-87.6-20.5c-32.1-21.9-70.6-25.8-84.8-38.3
					c-6.3-5.5-11.4-11-15.7-16.4c5,9,12.4,18.3,23,27.6c13.8,12.1,51.1,15.9,82.3,37.2c31.2,21.3,57.4,36.1,84.9,19.9
					c21.1-12.4,24.2-25.9,20.1-39.7C2182.1,3276.8,2176.4,3287.1,2160.1,3296.6z"/>
				<path fill="#EBEBEB" d="M2051.3,3229.3c-0.2,0-0.3,0-0.5,0c-2.6-0.2-4.4-2.5-4.2-5.1c0.1-1.4,3.6-34.6,29.9-53.2
					c2.1-1.5,5-1,6.5,1.1c1.5,2.1,1,5-1.1,6.5c-22.8,16.2-26,46.2-26,46.5C2055.7,3227.5,2053.7,3229.3,2051.3,3229.3z"/>
				<path fill="#EBEBEB" d="M2077.9,3238c-0.2,0-0.3,0-0.5,0c-2.6-0.2-4.4-2.5-4.2-5.1c0.1-1.4,3.6-34.6,29.9-53.2
					c2.1-1.5,5-1,6.5,1.1c1.5,2.1,1,5-1.1,6.5c-22.8,16.2-26,46.2-26,46.5C2082.3,3236.2,2080.3,3238,2077.9,3238z"/>
				<path fill="#EBEBEB" d="M2026.9,3220.4c-0.2,0-0.3,0-0.5,0c-2.6-0.2-4.4-2.5-4.2-5.1c0.1-1.4,3.6-34.6,29.9-53.2
					c2.1-1.5,5-1,6.5,1.1c1.5,2.1,1,5-1.1,6.5c-22.8,16.2-26,46.2-26,46.5C2031.2,3218.6,2029.2,3220.4,2026.9,3220.4z"/>
				<g>
					<path fill="#455A64" d="M2379.5,3047.4c5.8-63.7,18.2-163.4,23.4-210.1c9.3-83.3,0.8-146.9-5-177.1c-2.7-13.8-3.4-27.8-2-41.9
						c12.6-126.8,20.9-332.3,13.9-377.5l-178,37.7c0,0,21.8,288.3,31.3,384.3c9.6,96.6,45.4,385.5,45.4,385.5
						C2323.4,3057,2350.4,3066.6,2379.5,3047.4z"/>
					<path fill="#FFA8A7" d="M2353.8,3112.9c15.4-2.4,22.6-18.3,22.6-18.3c0-10,1.2-26.8,3-47.2c-29.1,19.2-56.1,9.6-71,0.8
						l6.3,53.6C2322,3110,2338.4,3115.3,2353.8,3112.9z"/>
				</g>
				<path fill="#455A64" d="M2179.2,3159.3c7.3-96.4,21.3-283.1,23.2-312.5c1.9-29.6-1.4-70.3-6.1-96.9c-3.1-17.3-2.8-35,0.3-52.3
					l78.2-434l-215.1-3.1l-14.1,454.7c-0.2,5.9,0,11.8,0.7,17.6l45.6,423.8l0,0C2091.9,3156.6,2136.4,3193.9,2179.2,3159.3z"/>
				<path fill="#FFA8A7" d="M2143.4,3238.9c15.5-1.4,29.4-14.5,31.5-22.2c0,0,1.7-23,4.3-57.4c-42.9,34.6-87.4-2.7-87.4-2.7l0,0
					l6.8,63.6C2098.7,3220.2,2108.8,3242.1,2143.4,3238.9z"/>
				<path fill="#BA68C8" d="M2159,1771.8l-50.7,17.3l-54.6,258.2l2.6,229c0,0,39,31.1,191.3,31.1c85.5,0,141.1-32.2,162.1-66.5
					l-13.7-138.3c0,0,13.7-136.3,13.7-203.7c0-67.4,3-122.6-49.7-156l-46.9,3.9L2159,1771.8z"/>
				<path opacity="0.2" fill="#FFFFFF" enable-background="new    " d="M2159,1771.8l-50.7,17.3l-54.6,258.2l2.6,229
					c0,0,39,31.1,191.3,31.1c85.5,0,141.1-32.2,162.1-66.5l-13.7-138.3c0,0,13.7-136.3,13.7-203.7c0-67.4,3-122.6-49.7-156
					l-46.9,3.9L2159,1771.8z"/>
				<path fill="#F28F8F" d="M2103.9,1549.9l-25.4,50.3c-1.6,3.1,0,6.9,3.3,8l30.2,10L2103.9,1549.9z"/>
				<path fill="#FFA8A7" d="M2139.1,1465.5c0,0-38.5,20.8-38.5,139.9c0,65.5,4.5,107.3,38.5,104.7c34-2.6,132-15.4,132-15.4v-229.2
					L2139.1,1465.5L2139.1,1465.5z"/>
				<path fill="#F28F8F" d="M2139.1,1710.1c12-0.9,31.8-3.1,52.6-5.5v-12.1c-19.1,9.8-53.1,16.6-58.2,17.6
					C2135.3,1710.2,2137.1,1710.3,2139.1,1710.1z"/>
				<polygon fill="#FFA8A7" points="2185.9,1687.4 2185.9,1762.1 2288.1,1762.1 2288.1,1657.1 				"/>
				<path fill="#BA68C8" d="M2185.9,1733.7c0,0,36.8,13.1,66.3,7.9c29.5-5.1,36-23.1,36-23.1s9.6-0.7,25.1,28.3
					c0,0-18.1,36.1-59.7,38.5c-54.6,3.2-94.4-13.5-94.4-13.5S2173.3,1729.9,2185.9,1733.7z"/>
				<path opacity="0.4" fill="#FFFFFF" enable-background="new    " d="M2185.9,1733.7c0,0,36.8,13.1,66.3,7.9
					c29.5-5.1,36-23.1,36-23.1s9.6-0.7,25.1,28.3c0,0-18.1,36.1-59.7,38.5c-54.6,3.2-94.4-13.5-94.4-13.5
					S2173.3,1729.9,2185.9,1733.7z"/>
				<path fill="#FFA8A7" d="M1957.7,1955.5l-27.5,42.3c0,0-66.7-29.7-113.6-47.8c-46.9-18-74.8-43.1-74.8-43.1s3.6-35.8,9-54
					s7.2-33.6-9-25.5c-16.2,8.1-27,39.7-27.9,43.3c0,0-93.8-94.2-105.5-92.2c-11.7,2-9,16.2,16.2,45.3
					c25.2,29.1,25.2,29.1,25.2,29.1s-57.5,33.1-48.1,69.2s85.1,52.3,85.1,52.3s221.7,170.4,270.9,139.7
					c49.1-30.7,118.6-119,118.6-119L1957.7,1955.5z"/>
				<path fill="#BA68C8" d="M2128.4,1782.5c0,0,40.9,33.7,14.3,103.2c-26.7,69.6-94.7,153.6-94.7,153.6s-71.4-22.2-98.9-79.8
					l90-140.8c13-20.3,34.8-33.3,58.9-34.9C2106.4,1783.3,2116.5,1782.8,2128.4,1782.5z"/>
				<path opacity="0.4" fill="#FFFFFF" enable-background="new    " d="M2128.4,1782.5c0,0,40.9,33.7,14.3,103.2
					c-26.7,69.6-94.7,153.6-94.7,153.6s-71.4-22.2-98.9-79.8l90-140.8c13-20.3,34.8-33.3,58.9-34.9
					C2106.4,1783.3,2116.5,1782.8,2128.4,1782.5z"/>
				<path fill="#263238" d="M2124.4,1395.4c0,0-40.4-5.4-50.7,22.5c-6.4,17.3,14.1,30.8,14.1,30.8s-26.1,24.5,12.8,32.1
					c0,0-3.2,33.4,31.5,28.9c0,0-4.5,26.5,29.5,35.7c0,0-17.2,45.9,15.2,46.5h30.3l-12.2,35.3c0,0,22.6,54.6,93.3,54.6
					c0,0,18-37.3,26.3-48.2c8.4-10.9,52-66.8,52-111.1c0-44.3-17-70.6-40.6-76.4c0,0-10.1-24.4-33.9-40.5
					c-23.8-16.1-73.9-30.4-102.1-10.7c0,0-25.1-32.8-42.4-32.8C2130.1,1362.1,2124.4,1380,2124.4,1395.4z"/>
				<path fill="#FFA8A7" d="M2176.8,1591.9c0,0-3-46.5,36.2-46.5c39.2,0,29.9,81.8-18.1,81.8L2176.8,1591.9z"/>
			</g>
		</g>
	</g>
</g>
</svg>
