<?xml version="1.0" encoding="utf-8"?>
<!-- Generator: Adobe Illustrator 18.1.1, SVG Export Plug-In . SVG Version: 6.00 Build 0)  -->
<svg version="1.1" xmlns="http://www.w3.org/2000/svg" xmlns:xlink="http://www.w3.org/1999/xlink" x="0px" y="0px"
	 viewBox="0 0 3710 3710" enable-background="new 0 0 3710 3710" xml:space="preserve">
<g id="Background">
</g>
<g id="Illustration">
	<g>
		<g id="Floor">
			<path id="XMLID_413_" fill="#F5F5F5" d="M561.8,3396.9c715.8,364.1,1876.3,364.2,2592.1,0c715.8-364.2,715.8-954.5,0-1318.7
				s-1876.3-364.1-2592.1,0C-154,2442.4-154,3032.8,561.8,3396.9z"/>
		</g>
		<g id="Shadow">
			<path id="XMLID_418_" fill="#EBEBEB" d="M2982.6,3092.3c93.2,47.4,244.3,47.4,337.6,0c93.2-47.4,93.2-124.3,0-171.7
				c-93.2-47.4-244.3-47.4-337.6,0C2889.4,2967.9,2889.4,3044.8,2982.6,3092.3z"/>
		</g>
		<g id="Plants">
			<g>
				<g id="XMLID_292_">
					<g id="XMLID_378_">
						<g>
							<path id="XMLID_372_" fill="#27DEBF" d="M506.9,3023.8l84.4-52c0,0,69.6-54.6,104.1-156c26.1-76.7,22.5-135.1,3.8-164.4
								c-23-36-82.5-29.7-84.9,46.2C609.6,2847.1,568.8,2950.5,506.9,3023.8z"/>
							<path id="XMLID_1_" opacity="0.2" enable-background="new    " d="M506.9,3023.8l84.4-52c0,0,69.6-54.6,104.1-156
								c26.1-76.7,22.5-135.1,3.8-164.4c-23-36-82.5-29.7-84.9,46.2C609.6,2847.1,568.8,2950.5,506.9,3023.8z"/>
						</g>
						<path fill="#FFFFFF" d="M506.9,3029.4c-1.7,0-3.3-0.8-4.3-2.4c-1.6-2.5-1-6,1.3-7.7c195.3-144.2,157.4-345.1,157-347.2
							c-0.6-3,1.2-5.9,4-6.6c2.8-0.7,5.6,1.3,6.2,4.2c0.4,2.1,39.9,210-161.3,358.6C509,3029,507.9,3029.4,506.9,3029.4z"/>
					</g>
					<g id="XMLID_379_">
						<path id="XMLID_364_" fill="#27DEBF" d="M338.1,3127.8c0,0-29.4-25.5-22.3-60.1c7.1-34.6,26.1-59.4-6.5-104
							c-32.6-44.6-41-104-2.7-136.2c29.6-24.9,75.8,10.4,92.5-55.6c12.2-48.1,8-154.7,65.5-190.1c57.5-35.4,93.2,17.9,84.4,90.2
							c-7.9,64.7-19,126.9-10.4,143.9c16.8,33.1,45.6,28.7,44.3,89.4c-1.2,56.6-51.3,103.4-51.3,103.4L338.1,3127.8z"/>
						<path fill="#FFFFFF" d="M434.6,3073.9c-2.6,0-4.8-2.1-5.2-4.9c-14.9-131.4,20.6-358.2,49.9-425.6c1.2-2.8,4.3-4,6.9-2.7
							c2.6,1.3,3.7,4.6,2.5,7.4c-28.8,66.3-63.2,294.1-49,419.7c0.3,3-1.7,5.8-4.5,6.2C435.1,3073.9,434.9,3073.9,434.6,3073.9z"/>
						<path fill="#FFFFFF" d="M431.8,2971.6c-0.8,0-1.5-0.2-2.3-0.6c-36-18.8-58.9-85.6-59.8-88.5c-1-2.9,0.4-6.1,3.1-7.1
							c2.7-1,5.7,0.5,6.6,3.3c0.2,0.7,22.4,65.4,54.6,82.2c2.6,1.3,3.6,4.7,2.4,7.4C435.6,2970.5,433.8,2971.6,431.8,2971.6z"/>
						<path fill="#FFFFFF" d="M431.3,3015.9c-2.1,0-4-1.3-4.8-3.5c-1.1-2.8,0.2-6.1,2.9-7.2c60.7-25.9,98.5-103.1,98.8-103.9
							c1.3-2.7,4.4-3.8,7-2.4c2.6,1.4,3.6,4.7,2.2,7.5c-1.6,3.3-40,81.6-104.2,109.1C432.6,3015.7,431.9,3015.9,431.3,3015.9z"/>
					</g>
				</g>
				<g>
					<g id="XMLID_366_">
						<path id="XMLID_374_" fill="#27DEBF" d="M2551.7,2419.4c0,0-45.4-78.4-49.8-163.8c-4.4-85.4,13.2-120.8,37.3-131
							c24.1-10.2,25.9,21.2,38.3,39.7c12.4,18.6,37.6,7.9,46.9-49.8c9.3-57.7,43.4-155.6,113.9-174.2c77.9-20.6,36.1,76.9,16.6,115
							c-19.6,38.1-34.8,89.9-21.9,104c12.9,14.1,32.9-12,52.1,12.2c23.2,29.2-48.8,134.1-90.1,159.6L2551.7,2419.4z"/>
						<path fill="#FFFFFF" d="M2613.9,2386.4c-0.1,0-0.2,0-0.3,0c-2.9-0.2-5.1-2.8-4.9-5.8c11.4-227,115.2-384.3,116.3-385.8
							c1.7-2.5,4.9-3.1,7.2-1.3c2.3,1.8,2.9,5.2,1.2,7.7c-1,1.5-103.1,156.3-114.4,380C2619,2384.1,2616.7,2386.4,2613.9,2386.4z"/>
						<path fill="#FFFFFF" d="M2619.9,2320.9c-0.9,0-1.7-0.2-2.5-0.7c-29.1-17.2-45.2-68.2-45.9-70.3c-0.9-2.9,0.6-6,3.3-7
							c2.7-1,5.7,0.6,6.6,3.5c0.2,0.5,15.5,49.1,41,64.1c2.5,1.5,3.4,4.9,2,7.5C2623.5,2319.9,2621.7,2320.9,2619.9,2320.9z"/>
						<path fill="#FFFFFF" d="M2625,2287.3c-2.3,0-4.4-1.7-5-4.2c-0.7-3,1-6,3.8-6.7c75-20.2,100.9-62.2,101.2-62.6
							c1.5-2.6,4.8-3.3,7.2-1.7c2.4,1.6,3.1,5.1,1.6,7.6c-1.1,1.9-28.1,46-107.4,67.4C2625.8,2287.3,2625.4,2287.3,2625,2287.3z"/>
					</g>
					<g>
						<g>
							<path id="XMLID_363_" fill="#27DEBF" d="M1421.7,2247c0,0-99.6-25.9-104.8-225c-5.6-214.9,24.4-465.6-93.1-486
								c-117.5-20.4-183.4,133.4-181.9,312c1.3,156.9,60.5,497.3,379.7,564L1421.7,2247z"/>
							<path id="XMLID_3_" opacity="0.2" enable-background="new    " d="M1421.7,2247c0,0-99.6-25.9-104.8-225
								c-5.6-214.9,24.4-465.6-93.1-486c-117.5-20.4-183.4,133.4-181.9,312c1.3,156.9,60.5,497.3,379.7,564L1421.7,2247z"/>
						</g>
						<path fill="#FFFFFF" d="M1421.7,2391.6c-0.3,0-0.6,0-0.9-0.1c-71.8-14-130.3-56.1-173.8-125.4
							c-129.1-205.5-88.4-589.1-75.1-656.1c0.6-3,3.3-4.9,6.2-4.3c2.8,0.6,4.6,3.6,4,6.6c-13.2,66.3-53.5,445.3,73.5,647.6
							c41.9,66.6,98,107.2,167,120.6c2.8,0.6,4.7,3.4,4.2,6.5C1426.4,2389.7,1424.2,2391.6,1421.7,2391.6z"/>
						<g id="XMLID_380_">
							<path id="XMLID_361_" fill="#27DEBF" d="M1421.7,2902.7c-103,14.9-270.3,14.6-366.6-66.5c-96.4-81.1-76.3-151-39.2-180.2
								c37.1-29.2,69.3-62.5,5.5-127.2c-63.8-64.7-166.3-168.7-199.4-324.7c-33.1-156-16.8-253.5,48.4-286
								c63.3-31.5,80,18.6,118.7,121.9c38.7,103.4,125.9,14.7,200.5,47c74.5,32.3,71.6,96.1,76.3,151c4.7,54.9,29.3,70.1,71.5,70.1
								c42.2,0,84.4,26,84.4,78L1421.7,2902.7z"/>
							<path fill="#FFFFFF" d="M1421.7,2721.6c-0.5,0-0.9-0.1-1.4-0.2c-4.5-1.3-111-34.4-266-186.4
								c-165.1-161.9-243.1-404.7-243.9-407.1c-0.9-2.9,0.5-6.1,3.3-7c2.7-1,5.7,0.6,6.6,3.5c0.8,2.4,77.9,242.6,241.1,402.5
								c152.9,150,260.7,183.6,261.8,183.9c2.8,0.8,4.4,3.9,3.6,6.8C1426.1,2720,1424,2721.6,1421.7,2721.6z"/>
							<path fill="#FFFFFF" d="M1197.5,2573.6c-2.1,0-4-1.3-4.8-3.5c-33.3-91.4-40.9-286.9-41.2-295.2c-0.1-3,2.1-5.6,5-5.8
								c2.7,0,5.3,2.3,5.4,5.3c0.1,2,7.8,201.9,40.5,291.6c1,2.9-0.3,6.1-3,7.2C1198.7,2573.5,1198.1,2573.6,1197.5,2573.6z"/>
							<path fill="#FFFFFF" d="M1196.6,2705.1c-16.1,0-27.3-1.4-28.7-1.5c-2.8-0.4-4.9-3.1-4.5-6.2c0.3-3,2.9-5.3,5.8-4.8
								c1,0.1,97.6,11.8,142-36.6c2-2.2,5.3-2.2,7.3-0.1c2,2.1,2.1,5.7,0.1,7.8C1286.1,2699.2,1230.5,2705.1,1196.6,2705.1z"/>
						</g>
					</g>
				</g>
			</g>
		</g>
		<g id="Gear">
			<g id="XMLID_272_">
				<g id="XMLID_561_">
					<path id="XMLID_562_" fill="#E0E0E0" d="M1121.8,605.6l-11.2-69.1l-57.8,40.6c-5.8-11.8-13.2-21.3-22-28.5l27.7-79.8
						l-51.5-12.3l-38,77.4c-12.6,2.1-25.9,6.6-39.6,13.8l-16.5-58.3L851.3,541l4,68.7c-12.5,14.8-23.9,31-34.1,48.1l-51-2.7
						l-35.7,85.5l43.8,19.9c-4.6,18.4-7.6,36.6-8.6,54.2l-55.5,54.5l11.2,69.1l57.8-40.6c5.8,11.8,13.2,21.3,22,28.5l-27.7,79.8
						l51.5,12.3l54.4-56.6c12.6-2.1,9.5-27.3,23.2-34.5l16.5,58.3l61.7-51.7l-1.6-27c12.5-14.8,59.6-47.5,69.8-64.6l12.8-22.5
						l35.7-85.5l-16.6-32.2l-18.5-41.9L1121.8,605.6z M933.5,833.5c-47.3,39.7-61.7,48.4-70.3-4.7c-8.6-53,19.1-133.9,66.4-173.6
						c47.3-39.7,65.5-42.7,74,10.4S980.8,793.7,933.5,833.5z"/>
					<polygon id="XMLID_271_" fill="#F5F5F5" points="1007.1,456.5 1074.4,497.9 1036.4,575.3 969,533.8 					"/>
					<polygon id="XMLID_144_" fill="#F5F5F5" points="1178,577.9 1120.2,618.5 1052.9,577.1 1110.7,536.5 					"/>
					<polygon id="XMLID_143_" fill="#E0E0E0" points="1168.7,775.7 1125,755.8 1057.6,714.3 1101.4,734.2 					"/>
					<polygon id="XMLID_621_" fill="#E0E0E0" points="777.4,1006.1 844.7,1047.6 872.4,967.7 805,926.3 					"/>
					<polygon id="XMLID_142_" fill="#E0E0E0" points="990.4,1027 923,985.6 906.5,927.3 973.9,968.7 					"/>
					<path id="XMLID_516_" fill="#EBEBEB" d="M1189.2,647.1l-11.2-69.1l-57.8,40.6c-5.8-11.8-13.2-21.3-22-28.5l27.7-79.8
						l-51.5-12.3l-38,77.4c-12.6,2.1-25.9,6.6-39.6,13.8l-16.5-58.3l-61.7,51.7l4,68.7c-12.5,14.8-23.9,31-34.1,48.1l-51-2.7
						l-35.7,85.5l43.8,19.9c-4.6,18.4-7.6,36.6-8.6,54.2l-55.5,54.5l11.2,69.1l57.8-40.6c5.8,11.8,13.2,21.3,22,28.5l-27.7,79.8
						l51.5,12.3l38-77.4c12.6-2.1,25.9-6.6,39.6-13.8l16.5,58.3l61.7-51.7l-4-68.7c12.5-14.8,23.9-31,34.1-48.1l51,2.7l35.7-85.5
						l-43.8-19.9c4.6-18.4,7.6-36.6,8.6-54.2L1189.2,647.1z M1000.8,874.9c-47.3,39.7-92.6,28.9-101.2-24.1
						c-8.6-53,22.9-128.2,70.2-167.9c47.3-39.7,92.6-28.9,101.1,24.1C1079.5,760,1048.1,835.2,1000.8,874.9z"/>
					<polygon id="XMLID_603_" fill="#F5F5F5" points="980.3,530.8 912.9,489.3 851.3,541 918.6,582.5 					"/>
					<polygon id="XMLID_614_" fill="#E0E0E0" points="851.3,541 855.3,609.8 922.7,651.2 918.6,582.5 					"/>
					<polygon id="XMLID_615_" fill="#F5F5F5" points="888.6,699.3 821.2,657.9 770.3,655.2 837.6,696.6 					"/>
					<polygon id="XMLID_616_" fill="#E0E0E0" points="770.3,655.2 734.5,740.6 801.9,782.1 837.6,696.6 					"/>
					<polygon id="XMLID_617_" fill="#F5F5F5" points="837,856.2 769.6,814.7 714.1,869.2 781.5,910.7 					"/>
					<polygon id="XMLID_619_" fill="#E0E0E0" points="792.6,979.8 725.3,938.4 714.1,869.2 781.5,910.7 					"/>
					<polygon id="XMLID_145_" fill="#F5F5F5" points="1074.4,497.9 1007.1,456.5 1058.5,468.7 1125.9,510.2 					"/>
				</g>
				<g id="XMLID_558_">
					<path id="XMLID_579_" fill="#E0E0E0" d="M820,292.1V188.8l-77,37c-4.6-19.1-11.7-35.4-20.8-48.9l48.5-104.4L711.5,36l-60.4,97
						c-15.5-1.7-32.3,0-50.1,5.2l-8.4-89.7l-83.8,51.6l-8.4,100.1c-17.8,16.7-34.6,35.8-50.1,56.5l-60.4-22.5l-59.2,109.5l48.5,44.6
						c-9.1,24.7-16.2,49.8-20.8,74.5l-77,57.8V624l77-37c4.6,19.1,11.7,35.4,20.8,48.9l-48.5,104.4l59.2,36.5l60.4-97
						c15.5,1.7,32.3,0,50.1-5.2l8.4,89.7l83.8-51.6l8.4-100.1c25-8.9,51.7-29.5,67.2-50.2l43.4,16.3L770.7,469l-36.3-33.4
						c9.1-24.7,10-64.1,8.6-85.7L820,292.1z M550.6,549.8c-64.3,39.6-104.2,11.5-104.2-67.7s53.1-176.2,117.4-215.9
						C628,226.7,667,255.5,667,334.7C667,413.9,614.9,510.2,550.6,549.8z"/>
					<polygon id="XMLID_582_" fill="#F5F5F5" points="778.8,77.5 711.5,36 651,133.1 718.4,174.5 					"/>
					<polygon id="XMLID_581_" fill="#F5F5F5" points="887.3,230.3 820,188.8 743,225.8 810.4,267.3 					"/>
					<polygon id="XMLID_580_" fill="#E0E0E0" points="576.1,805.7 508.7,764.2 500.3,674.5 567.7,716 					"/>
					<polygon id="XMLID_576_" fill="#E0E0E0" points="330.5,740.3 397.9,781.8 446.4,677.4 379,635.9 					"/>
					<path id="XMLID_524_" fill="#EBEBEB" d="M887.3,333.5V230.3l-77,37c-4.6-19.1-11.7-35.4-20.8-48.9L838.1,114l-59.2-36.5
						l-60.4,97c-15.5-1.7-32.3,0-50.1,5.2l-8.4-89.7l-83.8,51.6l-8.4,100.1c-17.8,16.7-34.6,35.8-50.1,56.5l-60.4-22.5l-59.2,109.5
						l48.5,44.6c-9.1,24.7-16.2,49.7-20.8,74.5l-77,57.8v103.2l77-37c4.6,19.1,11.7,35.4,20.8,48.9l-48.5,104.4l59.2,36.5l60.4-97
						c15.5,1.6,32.3,0,50.1-5.2l8.4,89.7l83.8-51.6l8.4-100.1c17.8-16.7,34.6-35.8,50.1-56.5l60.4,22.5l59.2-109.5l-48.5-44.6
						c9.1-24.7,16.2-49.7,20.8-74.5L887.3,333.5z M618,591.3c-64.3,39.6-116.4,7.5-116.4-71.7S553.7,344.1,618,304.5
						c64.3-39.6,116.4-7.5,116.4,71.7C734.4,455.4,682.3,551.7,618,591.3z"/>
					<polygon id="XMLID_559_" fill="#F0F0F0" points="450.2,256.8 517.6,298.3 457.1,275.8 389.8,234.3 					"/>
					<polygon id="XMLID_563_" fill="#F5F5F5" points="330.5,343.8 389.7,234.3 457,275.8 397.8,385.3 					"/>
					<polygon id="XMLID_564_" fill="#E0E0E0" points="330.5,343.8 397.9,385.3 446.4,429.9 379,388.4 					"/>
					<polygon id="XMLID_574_" fill="#F5F5F5" points="358.2,462.9 425.6,504.4 348.6,562.3 281.3,520.8 					"/>
					<polygon id="XMLID_575_" fill="#E0E0E0" points="281.3,520.8 348.6,562.3 348.6,665.5 281.3,624 					"/>
					<polygon id="XMLID_602_" fill="#F5F5F5" points="659.9,90.1 592.5,48.6 508.7,100.2 576.1,141.7 					"/>
				</g>
			</g>
		</g>
		<g id="Device">
			<g>
				<path id="XMLID_362_" fill="#E0E0E0" d="M1524.1,3051.1l976.7-601.9c9.9-6.1,9.9-16.1,0-22.2l-90.4-55.8c-9.9-6.1-26-6.2-36,0
					l-977,601.9c-9.9,6.1-9.9,16.1,0,22.2l90.6,55.8C1498.1,3057.2,1514.2,3057.2,1524.1,3051.1z"/>
				<path id="XMLID_55_" fill="#455A64" d="M2473.8,125.5l-880.5,542.6c-24.8,15.3-45,52.5-45,83.2v2229.4c0,30.6,20.1,43,45,27.7
					l880.6-542.6c24.8-15.3,45-52.5,45-83.2l0-2229.4C2518.8,122.6,2498.7,110.2,2473.8,125.5z"/>
				<path id="XMLID_54_" fill="#37474F" d="M1593.3,668.2l880.5-542.6c22.2-13.7,40.6-5.2,44.3,18.7c-3.4-28.6-21.8-60.3-44.3-74.1
					l-36.6-22.6c-24.8-15.3-65.1-15.3-90,0l-880.5,542.6c-12.4,7.7-23.7,20.8-31.8,35.8l126.6,78
					C1569.6,688.9,1580.9,675.8,1593.3,668.2z"/>
				<path id="XMLID_53_" fill="#263238" d="M1421.7,2902.7c0,30.6,20.1,67.9,45,83.2l36.6,22.6c22.5,13.8,57.4,15,82.3,3.9
					c-21.2,8.6-37.3-4.2-37.3-31.6V751.3c0-15.3,5-32.3,13.2-47.3l-126.6-78c-8.1,15-13.2,32-13.2,47.3L1421.7,2902.7z"/>
				<path id="XMLID_52_" fill="#FFFFFF" d="M1617.5,965.3l832.1-512.8c14.9-9.2,27-1.7,27,16.6l0,1649.7c0,18.4-12.1,40.7-27,49.9
					l-832.1,512.8c-14.9,9.2-27,1.7-27-16.6l0-1649.7C1590.5,996.8,1602.6,974.5,1617.5,965.3z"/>
				<path id="XMLID_51_" fill="#37474F" d="M2033.6,481.4c-8.7,5.4-15.8,18.5-15.8,29.2c0,10.8,7.1,15.1,15.8,9.7
					c8.7-5.4,15.8-18.5,15.8-29.2C2049.4,480.4,2042.3,476,2033.6,481.4z"/>
				<path id="XMLID_50_" fill="#37474F" d="M2033.6,2504.3c-34.5,21.3-62.5,73-62.5,115.5c0,42.5,28,59.8,62.5,38.5
					c34.5-21.3,62.5-73,62.5-115.5C2096.1,2500.3,2068.1,2483,2033.6,2504.3z"/>
				<g id="XMLID_47_">
					<path id="XMLID_49_" fill="#37474F" d="M1884.1,653c-17.5,10.8-31.6,37-31.6,58.5s14.2,30.3,31.7,19.5
						c17.5-10.8,31.6-37,31.6-58.5C1915.8,651,1901.6,642.3,1884.1,653z"/>
					<path id="XMLID_48_" fill="#37474F" d="M1961.5,645.7c0,14.4,10.1,19.8,22.5,12.1l208.2-128.3c12.4-7.7,22.5-25.5,22.5-39.9
						c0-14.4-10.1-19.8-22.5-12.1L1984,605.9C1971.6,613.5,1961.5,631.4,1961.5,645.7z"/>
				</g>
				<path id="XMLID_46_" fill="#37474F" d="M1491.8,1036.7c14,8.6,25.3,29.6,25.3,46.8c0,17.2-11.3,24.2-25.3,15.6
					c-14-8.6-25.3-29.6-25.3-46.8C1466.4,1035,1477.8,1028.1,1491.8,1036.7z"/>
				<path id="XMLID_45_" fill="#37474F" d="M1491.8,1244.8c14,8.6,25.3,29.6,25.3,46.8s-11.3,24.2-25.3,15.6
					c-14-8.6-25.3-29.6-25.3-46.8C1466.4,1243.2,1477.8,1236.2,1491.8,1244.8z"/>
				<path id="XMLID_267_" fill="#455A64" d="M1483.9,1040.8c14,8.6,25.3,29.6,25.3,46.8s-11.3,24.2-25.3,15.6
					c-14-8.6-25.3-29.6-25.3-46.8C1458.6,1039.2,1470,1032.2,1483.9,1040.8z"/>
				<path id="XMLID_44_" fill="#455A64" d="M1483.9,1249c14,8.6,25.3,29.6,25.3,46.8c0,17.2-11.3,24.2-25.3,15.6
					c-14-8.6-25.3-29.6-25.3-46.8S1470,1240.4,1483.9,1249z"/>
				<g id="XMLID_294_">
					<path id="XMLID_43_" fill="#FFFFFF" stroke="#27DEBF" stroke-miterlimit="10" d="M2645.4,521.3c0-18.4-12.1-25.8-27-16.6
						l-99.6,61.4l-732.5,451.4c-14.9,9.2-27,31.5-27,49.9l0,1649.7c0,18.4,12.1,25.8,27,16.6l732.8-451.6l99.3-61.2
						c14.9-9.2,27-31.5,27-49.9L2645.4,521.3z"/>
					<path fill="#27DEBF" stroke="#27DEBF" stroke-miterlimit="10" d="M1774.2,2743.1c-3.5,0-6.7-0.9-9.6-2.7
						c-6.8-4.2-10.5-12.5-10.5-23.5l0-1649.7c0-20.4,13-44.5,29.6-54.7l732.5-451.4l5.2,9.6l-732.5,451.4
						c-13.2,8.1-24.4,28.8-24.4,45.1l0,1649.7c0,6.7,1.9,11.8,5.3,13.8c3.4,2.1,8.4,1.3,13.9-2l732.8-451.6l5.2,9.6l-732.8,451.6
						C1783.8,2741.6,1778.8,2743.1,1774.2,2743.1z"/>
					<path fill="#27DEBF" stroke="#27DEBF" stroke-miterlimit="10" d="M2521.7,2286.9l-5.2-9.6l99.3-61.2
						c13.2-8.2,24.4-28.8,24.4-45.1l0-1649.7c0-6.7-1.9-11.8-5.3-13.8c-3.4-2.1-8.4-1.4-13.9,2l-99.6,61.4l-5.2-9.6l99.6-61.4
						c8.9-5.5,17.5-6.2,24.3-2c6.8,4.2,10.5,12.5,10.5,23.5l0,1649.7c0,20.4-13,44.5-29.6,54.7L2521.7,2286.9z"/>
				</g>
				<g>
					<path id="XMLID_42_" fill="#27DEBF" d="M2202.4,904.6c93.2-57.4,168.8-10.9,168.8,104s-75.6,254.6-168.8,312
						c-93.2,57.4-168.8,10.9-168.8-104C2033.6,1101.8,2109.1,962.1,2202.4,904.6z"/>
					<path id="XMLID_41_" fill="#27DEBF" d="M2202.4,995.1c30.2-18.6,54.8-3.5,54.8,33.7c0,37.3-24.5,82.6-54.8,101.2
						c-30.2,18.6-54.8,3.5-54.8-33.8C2147.6,1059,2172.1,1013.7,2202.4,995.1z"/>
				</g>
				<path id="XMLID_274_" fill="#27DEBF" d="M2309.1,1193.8c0-61.2-40.3-86.1-90-55.4l-31.1,19.1c-49.7,30.6-90,105.1-90,166.3v16.5
					c28.7,10.2,64.9,4.7,104.3-19.6c40.5-25,77.6-65.5,106.7-112.7V1193.8z"/>
				<g>
					<path id="XMLID_5_" opacity="0.7" fill="#FFFFFF" enable-background="new    " d="M2202.4,995.1c30.2-18.6,54.8-3.5,54.8,33.7
						c0,37.3-24.5,82.6-54.8,101.2c-30.2,18.6-54.8,3.5-54.8-33.8C2147.6,1059,2172.1,1013.7,2202.4,995.1z"/>
					<path id="XMLID_4_" opacity="0.7" fill="#FFFFFF" enable-background="new    " d="M2309.1,1193.8c0-61.2-40.3-86.1-90-55.4
						l-31.1,19.1c-49.7,30.6-90,105.1-90,166.3v16.5c28.7,10.2,64.9,4.7,104.3-19.6c40.5-25,77.6-65.5,106.7-112.7V1193.8z"/>
				</g>
				<g>
					<path id="XMLID_482_" fill="#27DEBF" d="M1875.8,1574.1l217.2-133.8c9.9-6.1,18-1.2,18,11.1v7.7c0,12.3-8.1,27.1-18,33.3
						l-217.2,133.8c-9.9,6.1-18,1.2-18-11.1v-7.7C1857.8,1595.1,1865.8,1580.2,1875.8,1574.1z"/>
					<path id="XMLID_7_" opacity="0.1" enable-background="new    " d="M1875.8,1574.1l217.2-133.8c9.9-6.1,18-1.2,18,11.1v7.7
						c0,12.3-8.1,27.1-18,33.3l-217.2,133.8c-9.9,6.1-18,1.2-18-11.1v-7.7C1857.8,1595.1,1865.8,1580.2,1875.8,1574.1z"/>
				</g>
				<g>
					<path id="XMLID_483_" fill="#27DEBF" d="M1866.8,1735.6l657.1-405c5-3.1,9-0.6,9,5.5v81.8c0,6.1-4,13.6-9,16.6l-657.1,405
						c-5,3.1-9,0.6-9-5.5v-81.8C1857.8,1746.1,1861.8,1738.7,1866.8,1735.6z"/>
					<path id="XMLID_10_" opacity="0.2" fill="#FFFFFF" enable-background="new    " d="M1866.8,1735.6l657.1-405c5-3.1,9-0.6,9,5.5
						v81.8c0,6.1-4,13.6-9,16.6l-657.1,405c-5,3.1-9,0.6-9-5.5v-81.8C1857.8,1746.1,1861.8,1738.7,1866.8,1735.6z"/>
				</g>
				<g>
					<path id="XMLID_512_" fill="#27DEBF" d="M1875.8,1938.1l217.2-133.8c9.9-6.1,18-1.2,18,11.1v7.7c0,12.2-8.1,27.1-18,33.3
						l-217.2,133.8c-9.9,6.1-18,1.2-18-11.1v-7.7C1857.8,1959.1,1865.8,1944.2,1875.8,1938.1z"/>
					<path id="XMLID_8_" opacity="0.1" enable-background="new    " d="M1875.8,1938.1l217.2-133.8c9.9-6.1,18-1.2,18,11.1v7.7
						c0,12.2-8.1,27.1-18,33.3l-217.2,133.8c-9.9,6.1-18,1.2-18-11.1v-7.7C1857.8,1959.1,1865.8,1944.2,1875.8,1938.1z"/>
				</g>
				<g>
					<path id="XMLID_511_" fill="#27DEBF" d="M1866.8,2099.7l657.1-405c5-3.1,9-0.6,9,5.5v81.8c0,6.1-4,13.6-9,16.6l-657.1,405
						c-5,3.1-9,0.6-9-5.5v-81.8C1857.8,2110.2,1861.8,2102.7,1866.8,2099.7z"/>
					<path id="XMLID_11_" opacity="0.2" fill="#FFFFFF" enable-background="new    " d="M1866.8,2099.7l657.1-405c5-3.1,9-0.6,9,5.5
						v81.8c0,6.1-4,13.6-9,16.6l-657.1,405c-5,3.1-9,0.6-9-5.5v-81.8C1857.8,2110.2,1861.8,2102.7,1866.8,2099.7z"/>
				</g>
				<g>
					<path id="XMLID_510_" fill="#27DEBF" d="M2129,2146.1l259.4-159.8c9.9-6.1,18-1.2,18,11.1v85.7c0,12.2-8.1,27.1-18,33.3
						L2129,2276.1c-9.9,6.1-18,1.2-18-11.1v-85.7C2111,2167.1,2119,2152.2,2129,2146.1z"/>
					<path id="XMLID_9_" opacity="0.1" enable-background="new    " d="M2129,2146.1l259.4-159.8c9.9-6.1,18-1.2,18,11.1v85.7
						c0,12.2-8.1,27.1-18,33.3L2129,2276.1c-9.9,6.1-18,1.2-18-11.1v-85.7C2111,2167.1,2119,2152.2,2129,2146.1z"/>
				</g>
			</g>
		</g>
		<g id="Character">
			<g>
				<path id="XMLID_276_" fill="#FFA8A7" d="M2743.9,1784.9c0,0-127.6-187.9-135.4-210.3c-5.9-16.9,0.4-41.9,1.9-53.6
					c1.5-11.6,3.6-37.6,5.4-44.8c3.2-12.6-12.1-10-20.7,1.4c-8.8,11.7-11.6,34.6-16,38.4c-4.4,3.8-38.5-49.1-56.3-73.6
					c-17.8-24.5-28.9-39.2-39.7-30.1c-7.8,6.5-2,20.8,10.9,41.6c12.9,20.8,18.6,30.5,20.6,35c2,4.5-8.7,4.8-14.4,14.2
					c-4.5,7.3-0.3,19.2-6.2,24.9c-5.9,5.7-11.4,15.9-5,27.3c8.3,14.6,24.9,35.5,43.9,49.6c19.1,14.1,26.8,19.1,38.1,38.3
					c11.3,19.2,112.9,215.1,119.8,226.9c6.8,11.8,20.1,35.7,40.1,36.4c20.1,0.7,184.2-150.1,192.6-157.6c27-24.1,35.6-27.6,40.2-5.9
					c1.5,6.8,2.4,14.5,3.4,23.3c3.3,27.5,20.8,125.7,20.8,125.7s83,42.9,151.3,21.8c68.3-21.2,91.3-51.6,91.3-51.6l-34.2-59.5
					c9.3-24.6,52.3-123.8,65.8-193.4l-214-36.9c-4.4-1-11.4-2.9-20.4-5.4c-11.7-3.3-41.3-14.4-64.1,6.8
					C2890.1,1642.1,2743.9,1784.9,2743.9,1784.9"/>
				<path id="XMLID_287_" fill="#37474F" d="M3168.2,2937.3l-38.4,56.9c0,0,17.8,11.1,55.7,12.7c34.3,1.4,43.8-10.6,45-13.5
					c5.8-13.3-3.3-37.2-5.7-57.8L3168.2,2937.3z"/>
				<path id="XMLID_284_" fill="#37474F" d="M3131.9,2966.9c0,0-46.5-3.2-78.6-7.5c-32.2-4.3-57.6,12.4-50,26.6
					c7.6,14.1,25.2,25.9,52.8,35.8c23.6,8.5,51.9,14.6,76.5,22.5c25.3,8.1,41.4,17.3,55.7,12.1c15.9-5.9,22.8-12.7,21.4-25.1
					c-1.4-12.4-12.9-52.3-12.9-52.3L3131.9,2966.9z"/>
				<path id="XMLID_288_" fill="#F28F8F" d="M3230.5,2880.1c0,0-5.8,51.7-6.3,62.8c-0.4,11.1-47.3,14.6-56.1-5.6l-1.5-63.2
					L3230.5,2880.1z"/>
				<path id="XMLID_285_" fill="#FFA8A7" d="M3183.3,2911.9l16.7,78.4c0,0,1.6,9.6-36.7,15.6c-38.3,6.1-98.3-21.4-108.5-26.9
					c-10.2-5.6-11.4-16.7,26.1-14.5c37.6,2.2,50.9,2.3,50.9,2.3l-12.2-34.8L3183.3,2911.9z"/>
				<path id="XMLID_282_" fill="#F28F8F" d="M3262.1,1609.3l26.4-7.8c0,0,55.4,187,61.5,205c6.1,18,13,37.2,1.1,59.5
					c-14.2,26.5-89.1,133.3-89.1,133.3l-47.5-49.7l53.9-105.5l-47.7-103.2L3262.1,1609.3z"/>
				<path id="XMLID_280_" fill="#37474F" d="M2989.8,1366.2c0,0-21.2-36.2,1.1-80.6c26.3-52.3,85.2-77.8,155.2-68
					c32.4,4.5,70.6,32.9,91.5,76.2c23,47.5,25.2,143.4,30.9,179.6L2989.8,1366.2z"/>
				<path id="XMLID_14181_" fill="#FFA8A7" d="M2988.2,1386.7c0,0-16.6,33.8-13.8,36.9c2.9,3.1,14,5.6,14,5.6L2988.2,1386.7z"/>
				<path id="XMLID_270_" fill="#FFA8A7" d="M3038.7,1279.7c-18.1,12.6-49.2,35.6-50.6,111.6c-1.4,78,8.9,103.2,19.7,112.2
					c7.3,6.1,50,3,68.3-1.6c18.3-4.6,71-32.4,90-74.6c22.3-49.7,17.8-122.4-15.4-143.6C3103.9,1254.1,3054,1269.1,3038.7,1279.7z"/>
				<g>
					<path id="XMLID_283_" fill="#27DEBF" d="M3230.5,1862.2c32,53.2,62.5,100.1,69,159.9c13.7,126.3-31.3,270.7-40.8,364
						c0,0,30.2,41.9,30.2,91.2c0,38.6-58.3,402.8-58.3,402.8s-42.4,13.8-63.8-6l-40.1-670.1l21.1-81.6L3230.5,1862.2z"/>
					<path id="XMLID_12_" opacity="0.2" enable-background="new    " d="M3230.5,1862.2c32,53.2,62.5,100.1,69,159.9
						c13.7,126.3-31.3,270.7-40.8,364c0,0,30.2,41.9,30.2,91.2c0,38.6-58.3,402.8-58.3,402.8s-42.4,13.8-63.8-6l-40.1-670.1
						l21.1-81.6L3230.5,1862.2z"/>
				</g>
				<g>
					<path id="XMLID_40_" fill="#27DEBF" d="M3126.6,2204.1l21.1-81.6c0,0,58.5-15.1,114.4-48.4c0,0-21.7,42-83.7,65l-32.3,104.9
						l-2.8,240L3126.6,2204.1z"/>
					<path id="XMLID_14_" opacity="0.3" enable-background="new    " d="M3126.6,2204.1l21.1-81.6c0,0,58.5-15.1,114.4-48.4
						c0,0-21.7,42-83.7,65l-32.3,104.9l-2.8,240L3126.6,2204.1z"/>
				</g>
				<g>
					<path id="XMLID_281_" fill="#27DEBF" d="M3230.5,1862.2c17.1,29.9,58.1,80.9,49.4,130c-10.6,59.5-40.5,101.2-132.2,130.3
						l-86,332.4c0,0,44.8,44.7,58.5,87.3c13.7,42.5,63.1,369.8,63.1,369.8s-15.3,26.6-63.6,20.2c0,0-168.4-410.5-180.3-436.9
						c-11.9-26.4-19.6-46.2-14.3-89.2c5.4-43,62.7-513.9,62.7-513.9L3230.5,1862.2z"/>
					<path id="XMLID_13_" opacity="0.2" enable-background="new    " d="M3230.5,1862.2c17.1,29.9,58.1,80.9,49.4,130
						c-10.6,59.5-40.5,101.2-132.2,130.3l-86,332.4c0,0,44.8,44.7,58.5,87.3c13.7,42.5,63.1,369.8,63.1,369.8s-15.3,26.6-63.6,20.2
						c0,0-168.4-410.5-180.3-436.9c-11.9-26.4-19.6-46.2-14.3-89.2c5.4-43,62.7-513.9,62.7-513.9L3230.5,1862.2z"/>
				</g>
				<g>
					<path id="XMLID_286_" fill="#27DEBF" d="M3262.1,1609.3l-214-36.9c-4.4-1-11.5-2.9-20.4-5.4l0,0c0,0-9.1,143.2-64,176.1h0
						c1.3,6.8,2.4,14.5,3.4,23.3c3.3,27.5,20.8,125.7,20.8,125.7s83,42.9,151.3,21.8c68.3-21.2,91.3-51.6,91.3-51.6l-34.2-59.5
						C3205.7,1778.1,3248.6,1678.9,3262.1,1609.3z"/>
					<path id="XMLID_15_" opacity="0.7" fill="#FFFFFF" enable-background="new    " d="M3262.1,1609.3l-214-36.9
						c-4.4-1-11.5-2.9-20.4-5.4l0,0c0,0-9.1,143.2-64,176.1h0c1.3,6.8,2.4,14.5,3.4,23.3c3.3,27.5,20.8,125.7,20.8,125.7
						s83,42.9,151.3,21.8c68.3-21.2,91.3-51.6,91.3-51.6l-34.2-59.5C3205.7,1778.1,3248.6,1678.9,3262.1,1609.3z"/>
				</g>
				<path id="XMLID_543_" fill="#27DEBF" d="M3205.7,1779.3c-0.9,2.2-68.8,41-89,46.9c31.8-1.7,58.2-9.7,79.6-23.6L3205.7,1779.3z"
					/>
				<path id="XMLID_277_" fill="#37474F" d="M3033.4,1283.6c0,0-10,72.1,14.2,114.4c0,0,9.1-28.7,31.9-23.2c23,5.5,24,37.4,8,55.5
					c-16,18.1-33.7,11.5-33.7,11.5s-3.6,52.1-5.5,95.8c-1.9,42.1-12.9,138.9,33.2,177.8c46.1,38.9,161.5,52.1,215.6-28.7
					c30.1-44.9-9.9-124.3-28.5-213.3c-17.1-81.9-26.7-203.2-108.1-222.6C3079,1231.3,3033.4,1283.6,3033.4,1283.6z"/>
			</g>
		</g>
		<g id="Cloud">
			<path id="XMLID_295_" fill="#EBEBEB" d="M3331.9,298.8l-17.2,10.6c1.4-6.7,2.3-13.4,2.3-19.9c0-37.1-24.4-52.1-54.5-33.6
				c-8.8,5.4-16.9,13.2-24.2,22.2c0-0.1,0-0.2,0-0.3c0-49.9-32.8-70.2-73.3-45.2s-73.4,85.7-73.4,135.6c0,2.5,0.1,5,0.3,7.3
				c-8.6-1.6-18.8,0.6-29.8,7.4c-30.1,18.5-54.5,63.6-54.5,100.7c0,5.1,0.5,9.7,1.4,14l-9.1,5.6c-24.8,15.3-45,45.2-45,66.7
				c0,21.5,20.1,26.6,45,11.3l332-204.6c24.8-15.3,45-45.2,45-66.7C3376.8,288.6,3356.7,283.5,3331.9,298.8z"/>
		</g>
	</g>
</g>
</svg>
